<svg version="1.1" id="Capa_1" xmlns="http://www.w3.org/2000/svg" xmlns:xlink="http://www.w3.org/1999/xlink" x="0px" y="0px" viewBox="0 0 512 512" style="enable-background:new 0 0 512 512;" xml:space="preserve" width="300" height="300" xmlns:svgjs="http://svgjs.dev/svgjs"><g width="100%" height="100%" transform="matrix(1,0,0,1,0,0)"><g>
	<path style="" d="M419.2,504H92.8c-13.6,0-24-10.4-24-24V32c0-13.6,10.4-24,24-24h326.4c13.6,0,24,10.4,24,24v448&#10;&#9;&#9;C443.2,493.6,432,504,419.2,504z" fill="#080719" fill-opacity="1" data-original-color="#ffffffff" stroke="none" stroke-opacity="1"/>
	<path style="" d="M68.8,430.4V480c0,13.6,10.4,24,24,24h326.4c13.6,0,24-10.4,24-24v-49.6H292.8H68.8z" fill="#080719" fill-opacity="1" data-original-color="#ffffffff" stroke="none" stroke-opacity="1"/>
	<path style="" d="M443.2,72.8V32c0-13.6-10.4-24-24-24H92.8c-13.6,0-24,10.4-24,24v40.8H443.2z" fill="#080719" fill-opacity="1" data-original-color="#ffffffff" stroke="none" stroke-opacity="1"/>
</g><g>
	<path style="" d="M419.2,0H92.8c-17.6,0-32,14.4-32,32v448c0,17.6,14.4,32,32,32h326.4c17.6,0,32-14.4,32-32V32&#10;&#9;&#9;C451.2,14.4,436.8,0,419.2,0z M76.8,32c0-8.8,7.2-16,16-16h326.4c8.8,0,16,7.2,16,16v32.8H76.8V32z M435.2,480c0,8.8-7.2,16-16,16&#10;&#9;&#9;H92.8c-8.8,0-16-7.2-16-16v-41.6h358.4V480z M435.2,422.4H76.8V80.8h358.4V422.4z" fill="#ffffff" fill-opacity="1" data-original-color="#193651ff" stroke="none" stroke-opacity="1"/>
	<rect x="200.8" y="32" style="" width="16" height="16" fill="#ffffff" fill-opacity="1" data-original-color="#193651ff" stroke="none" stroke-opacity="1"/>
	<rect x="248" y="32" style="" width="16" height="16" fill="#ffffff" fill-opacity="1" data-original-color="#193651ff" stroke="none" stroke-opacity="1"/>
	<rect x="295.2" y="32" style="" width="16" height="16" fill="#ffffff" fill-opacity="1" data-original-color="#193651ff" stroke="none" stroke-opacity="1"/>
</g><path style="" d="M295.2,479.2h-78.4c-6.4,0-12-5.6-12-12l0,0c0-6.4,5.6-12,12-12h78.4c6.4,0,12,5.6,12,12l0,0&#10;&#9;C307.2,473.6,301.6,479.2,295.2,479.2z" fill="#8f8f8f" fill-opacity="1" data-original-color="#f16051ff" stroke="none" stroke-opacity="1"/><g>
	<path style="" d="M227.2,139.2l-23.2-28c-2.4-3.2-1.6-7.2,0.8-9.6l0,0c3.2-2.4,7.2-1.6,9.6,0.8l23.2,28&#10;&#9;&#9;c2.4,3.2,1.6,7.2-0.8,9.6l0,0C234.4,142.4,229.6,142.4,227.2,139.2z" fill="#ffffff" fill-opacity="1" data-original-color="#2ea2dbff" stroke="none" stroke-opacity="1"/>
	<path style="" d="M275.2,140.8L275.2,140.8c-3.2-2.4-3.2-6.4-0.8-9.6l23.2-28c2.4-3.2,6.4-3.2,9.6-0.8l0,0&#10;&#9;&#9;c3.2,2.4,3.2,6.4,0.8,9.6l-23.2,28C282.4,142.4,277.6,142.4,275.2,140.8z" fill="#ffffff" fill-opacity="1" data-original-color="#2ea2dbff" stroke="none" stroke-opacity="1"/>
	<path style="" d="M384.8,287.2v-56.8c0-7.2-5.6-13.6-13.6-13.6l0,0c-7.2,0-13.6,5.6-13.6,13.6v56.8&#10;&#9;&#9;c0,7.2,5.6,13.6,13.6,13.6l0,0C379.2,300,384.8,294.4,384.8,287.2z" fill="#ffffff" fill-opacity="1" data-original-color="#2ea2dbff" stroke="none" stroke-opacity="1"/>
	<path style="" d="M153.6,287.2v-56.8c0-7.2-5.6-13.6-13.6-13.6l0,0c-7.2,0-13.6,5.6-13.6,13.6v56.8&#10;&#9;&#9;c0,7.2,5.6,13.6,13.6,13.6l0,0C148,300,153.6,294.4,153.6,287.2z" fill="#ffffff" fill-opacity="1" data-original-color="#2ea2dbff" stroke="none" stroke-opacity="1"/>
	<path style="" d="M167.2,216.8V324c0,14.4,12,26.4,26.4,26.4h6.4v38.4c0,7.2,5.6,13.6,13.6,13.6&#10;&#9;&#9;c7.2,0,13.6-5.6,13.6-13.6v-38.4h59.2v38.4c0,7.2,5.6,13.6,13.6,13.6c7.2,0,13.6-5.6,13.6-13.6v-38.4h5.6c14.4,0,26.4-12,26.4-26.4&#10;&#9;&#9;V216.8H167.2z" fill="#ffffff" fill-opacity="1" data-original-color="#2ea2dbff" stroke="none" stroke-opacity="1"/>
	<path style="" d="M256,115.2c-48.8,0-88.8,40-88.8,88.8h177.6C344.8,154.4,304.8,115.2,256,115.2z" fill="#ffffff" fill-opacity="1" data-original-color="#2ea2dbff" stroke="none" stroke-opacity="1"/>
</g><g>
	<circle style="" cx="223.2" cy="165.6" r="10.4" fill="#080719" fill-opacity="1" data-original-color="#ffffffff" stroke="none" stroke-opacity="1"/>
	<circle style="" cx="288.8" cy="165.6" r="10.4" fill="#080719" fill-opacity="1" data-original-color="#ffffffff" stroke="none" stroke-opacity="1"/>
</g><g>
</g><g>
</g><g>
</g><g>
</g><g>
</g><g>
</g><g>
</g><g>
</g><g>
</g><g>
</g><g>
</g><g>
</g><g>
</g><g>
</g><g>
</g></g></svg>