<svg width="18" height="19" viewBox="0 0 18 19" fill="none" xmlns="http://www.w3.org/2000/svg">
<path d="M17.2489 13.0726L15.6416 11.4654C15.1625 10.9901 14.5158 10.7221 13.8409 10.7193C13.1661 10.7164 12.5171 10.9788 12.034 11.45C11.7762 11.7093 11.4361 11.8706 11.0722 11.9062C10.7083 11.9418 10.3434 11.8495 10.0403 11.6451C8.84374 10.8465 7.81582 9.82061 7.01496 8.62562C6.81417 8.31908 6.72518 7.9527 6.76297 7.58821C6.80076 7.22372 6.96303 6.8834 7.22244 6.62457C7.68935 6.14099 7.94841 5.49384 7.94418 4.82165C7.93994 4.14945 7.67276 3.50562 7.1998 3.02795L5.59253 1.42069C5.11133 0.941142 4.45968 0.671875 3.78034 0.671875C3.10099 0.671875 2.44934 0.941142 1.96815 1.42069L1.50569 1.88387C-0.905208 4.29477 -0.724756 9.3635 4.29137 14.3767C7.31596 17.402 10.3603 18.6688 12.8289 18.6688C13.5556 18.693 14.2798 18.5724 14.9594 18.3139C15.6389 18.0553 16.2603 17.6642 16.7871 17.1631L17.2503 16.6999C17.7307 16.2185 18.0004 15.5661 18.0002 14.886C17.9999 14.2059 17.7297 13.5537 17.2489 13.0726ZM16.2158 15.6669L15.7526 16.1301C13.8531 18.0296 9.66037 17.6826 5.32295 13.3444C0.985521 9.00625 0.637767 4.81056 2.53726 2.91106L2.9968 2.44861C3.2037 2.24245 3.48387 2.12669 3.77595 2.12669C4.06803 2.12669 4.34821 2.24245 4.55511 2.44861L6.16238 4.05587C6.36552 4.26004 6.48083 4.53551 6.4837 4.82351C6.48657 5.1115 6.37676 5.38922 6.17772 5.59739C5.68405 6.0942 5.37611 6.74557 5.30549 7.44238C5.23486 8.13919 5.40584 8.83911 5.78978 9.42487C6.69975 10.7866 7.86991 11.955 9.23299 12.863C9.81699 13.247 10.5151 13.4189 11.2106 13.3502C11.9062 13.2815 12.5571 12.9761 13.0546 12.4852C13.2624 12.2839 13.5409 12.172 13.8302 12.1738C14.1196 12.1756 14.3967 12.2908 14.602 12.4947L16.2093 14.102C16.3128 14.2041 16.3952 14.3257 16.4516 14.4597C16.5081 14.5938 16.5374 14.7377 16.538 14.8831C16.5387 15.0285 16.5105 15.1727 16.4552 15.3072C16.3999 15.4417 16.3186 15.5639 16.2158 15.6669Z" fill="#22AAD2"/>
</svg>
