<svg clip-rule="evenodd" fill-rule="evenodd" height="300" image-rendering="optimizeQuality" shape-rendering="geometricPrecision" text-rendering="geometricPrecision" viewBox="0 0 1707 1707" width="300" xmlns="http://www.w3.org/2000/svg" version="1.1" xmlns:xlink="http://www.w3.org/1999/xlink" xmlns:svgjs="http://svgjs.dev/svgjs"><g width="100%" height="100%" transform="matrix(1,0,0,1,0,0)"><g id="Layer_x0020_1" fill="rgb(0,0,0)"><path d="m815 1230c-5 0-11-2-15-5l-130-131c-7-7-8-19-1-27l50-57c48 44 130 123 169 163l-60 52c-4 4-9 5-13 5zm-70-250 286-327c86-98 261-29 256 112-1 39-18 74-46 99l-325 284c-32-37-90-96-171-168zm431-174c-5 0-10-2-14-6l-67-67c-19-19 10-47 28-29l67 67c13 13 4 35-14 35z" fill="#ffffff" fill-opacity="1" data-original-color="#000000ff" stroke="none" stroke-opacity="1"/><path d="m462 1476c-8 0-15-4-18-12-3-5-56-136 4-253 34-64 95-110 183-138-2 16 3 33 15 45l131 130c19 19 48 21 69 5 25 137-69 182-211 164-67-9-120 9-158 52-3 5-9 7-15 7z" fill="#ffffff" fill-opacity="1" data-original-color="#000000ff" stroke="none" stroke-opacity="1"/><path d="m1565 1635h-1423c-78 0-142-64-142-142v-1178h932c24 0 20-30 20-50 0-60 63-158 126-193h487c78 0 142 63 142 142v1279c0 78-64 142-142 142zm-33-1261c-44 0-79-35-79-79s35-79 79-79c43 0 79 35 79 79s-36 79-79 79zm0-119c-53 0-53 80 0 80 52 0 52-80 0-80zm-216 119c-43 0-79-35-79-79s36-79 79-79c44 0 79 35 79 79s-35 79-79 79zm0-119c-52 0-52 80 0 80 53 0 53-80 0-80zm-215 119c-44 0-79-35-79-79s35-79 79-79c43 0 79 35 79 79s-36 79-79 79zm0-119c-53 0-53 80 0 80 52 0 52-80 0-80zm-1101 20v-61c0-79 64-142 142-142h872c-62 57-102 134-102 203zm1629 224h-1551v994c0 35 29 64 64 64h1423c35 0 64-29 64-64z" fill="#ffffff" fill-opacity="1" data-original-color="#000000ff" stroke="none" stroke-opacity="1"/></g></g></svg>