<svg xmlns="http://www.w3.org/2000/svg" viewBox="0 0 512 512" width="300" height="300" version="1.1" xmlns:xlink="http://www.w3.org/1999/xlink" xmlns:svgjs="http://svgjs.dev/svgjs"><g width="100%" height="100%" transform="matrix(1,0,0,1,0,0)"><g id="Layer_2" data-name="Layer 2"><g id="Layer_1_copy_4" data-name="Layer 1 copy 4"><g id="_95" data-name="95"><path d="M393.21,144.83H287.7a27.33,27.33,0,0,1-26.22-19.31l-3.24-10.42a11.27,11.27,0,0,0-10.8-7.95H118.79a11.32,11.32,0,0,0-11.3,11.31V239.25H242.71a27.29,27.29,0,0,1,25.59,17.5L274.23,272a11.24,11.24,0,0,0,10.54,7.21H393.21a11.32,11.32,0,0,0,11.3-11.31V156.14A11.32,11.32,0,0,0,393.21,144.83Z" fill="#ffffff" fill-opacity="1" data-original-color="#000000ff" stroke="none" stroke-opacity="1"/><path d="M413.89,0H98.11A98.1,98.1,0,0,0,0,98.11V413.89A98.1,98.1,0,0,0,98.11,512H413.89A98.1,98.1,0,0,0,512,413.89V98.11A98.1,98.1,0,0,0,413.89,0Zm6.78,267.9a27.49,27.49,0,0,1-27.46,27.46H284.77a27.29,27.29,0,0,1-25.59-17.5l-5.93-15.25a11.24,11.24,0,0,0-10.54-7.21H107.49V412.92a8.08,8.08,0,0,1-16.16,0V118.46A27.49,27.49,0,0,1,118.79,91H247.44a27.34,27.34,0,0,1,26.22,19.31l3.24,10.42a11.27,11.27,0,0,0,10.8,8H393.21a27.49,27.49,0,0,1,27.46,27.46Z" fill="#ffffff" fill-opacity="1" data-original-color="#000000ff" stroke="none" stroke-opacity="1"/></g></g></g></g></svg>