<svg id="Layer_1" enable-background="new 0 0 66 66" height="300" viewBox="0 0 66 66" width="300" xmlns="http://www.w3.org/2000/svg" version="1.1" xmlns:xlink="http://www.w3.org/1999/xlink" xmlns:svgjs="http://svgjs.dev/svgjs"><g width="100%" height="100%" transform="matrix(1,0,0,1,0,0)"><g id="icons"><g><g><g><path d="m8.7 15.7c-.5 0-.9-.4-1-.9-.4-3 .4-6 2.3-8.5 2-2.6 5.1-4.4 8.6-4.8 4.2-.5 8.4 1 11.1 4 .4.4.3 1-.1 1.4s-1 .3-1.4-.1c-2.3-2.6-5.8-3.8-9.3-3.4-2.9.4-5.5 1.8-7.2 4.1-1.6 2-2.2 4.5-1.9 7 .1.5-.3 1.1-.9 1.1-.1.1-.2.1-.2.1z" fill="#ffffff" fill-opacity="1" data-original-color="#000000ff" stroke="none" stroke-opacity="1"/></g><g><path d="m57.9 28.1c-.1 0-.2 0-.3 0-.7-.1-4.3-.2-10-.2-.6 0-1-.4-1-1s.4-1 1-1c6.2 0 9 0 10.3.2 2.3-.2 4.2-2.1 4.2-4.4 0-1.1-.5-2.2-1.3-3-.9-.8-2.1-1.3-3.4-1.3-.6 0-1-.4-1-1s.4-1 1-1c1.8 0 3.4.6 4.8 1.9 1.3 1.3 1.9 2.8 1.9 4.4 0 3.4-2.7 6.2-6.2 6.4z" fill="#ffffff" fill-opacity="1" data-original-color="#000000ff" stroke="none" stroke-opacity="1"/></g><g><path d="m9.6 28.2c-3.8 0-7.2-2.7-7.6-6.3-.2-1.9.3-3.8 1.5-5.3 1.3-1.6 3.1-2.6 5.2-2.8.5-.1 1 .3 1.1.9.1.5-.3 1-.9 1.1-1.5.2-2.9.9-3.8 2s-1.3 2.5-1.1 3.8c.3 2.8 3.2 4.9 6.3 4.5h.1s3.2 0 8-.1c.6 0 1 .4 1 1s-.4 1-1 1c-4.4.1-7.5.1-8 .1-.2.1-.5.1-.8.1z" fill="#ffffff" fill-opacity="1" data-original-color="#000000ff" stroke="none" stroke-opacity="1"/></g><g><path d="m57.3 17.4c-.1 0-.2 0-.3-.1-.5-.2-.8-.7-.6-1.3.5-1.5.4-3.2-.3-4.6-.8-1.5-2.2-2.7-3.9-3.2s-3.6-.4-5.2.4c-.5.2-1.1 0-1.3-.4-.2-.5 0-1.1.4-1.3 2.1-1 4.4-1.2 6.6-.6 2.2.7 4.1 2.2 5.1 4.2 1 1.9 1.2 4.1.5 6.2-.2.4-.6.7-1 .7z" fill="#ffffff" fill-opacity="1" data-original-color="#000000ff" stroke="none" stroke-opacity="1"/></g><g><path d="m46.9 10.2c-.4 0-.8-.3-1-.7-1-3.8-4.6-6.5-8.7-6.5-3.5 0-6.7 2-8.2 5-.2.5-.8.7-1.3.5s-.7-.8-.5-1.3c1.8-3.8 5.7-6.2 10-6.2 5.1 0 9.4 3.3 10.7 7.9.1.5-.2 1.1-.7 1.2-.1.1-.2.1-.3.1z" fill="#ffffff" fill-opacity="1" data-original-color="#000000ff" stroke="none" stroke-opacity="1"/></g></g><g><path d="m9.8 51.1c-.2 0-.3 0-.5-.1-4.1-2.3-6.1-7.2-5-11.8l-1.4-.7c-.4-.2-.6-.6-.5-1 0-.4.3-.7.7-.9l6.8-2.1c.3-.1.5-.1.8.1.2.1.4.3.5.6l2.1 6.9c.1.4 0 .8-.3 1.1s-.7.3-1.1.1l-1.4-.7c-.5 2.4-.4 4.9.3 7.2.1.4 0 .8-.3 1.1-.3.1-.5.2-.7.2zm-3.8-13.3c.4.2.6.7.4 1.2-1 3.1-.3 6.4 1.8 8.6-.3-2.3-.1-4.6.6-6.8.1-.3.3-.5.6-.6s.6-.1.9 0l.4.2-1.1-3.7z" fill="#ffffff" fill-opacity="1" data-original-color="#000000ff" stroke="none" stroke-opacity="1"/></g><g><path d="m57 50.4c-.1 0-.2 0-.3-.1-.3-.1-.5-.3-.6-.5l-3-6.2c-.2-.4-.1-.8.2-1.1s.7-.4 1.1-.3l1.4.5c.1-2.3-.4-4.5-1.5-6.7-.2-.4-.1-.8.1-1.1.3-.3.7-.4 1.1-.3 4.3 1.6 7 5.8 6.6 10.2l1.3.4c.4.1.7.5.7.9s-.2.8-.5 1l-6.1 3.1c-.2.2-.3.2-.5.2zm-1.1-5.5 1.5 3.1 3.1-1.6c-.4-.2-.6-.6-.5-1 .5-2.9-.7-5.8-3-7.6.6 2.1.8 4.3.5 6.4 0 .3-.2.6-.5.7-.3.2-.6.2-.9.1z" fill="#ffffff" fill-opacity="1" data-original-color="#000000ff" stroke="none" stroke-opacity="1"/></g><g><path d="m43.7 65h-21.4c-2.6 0-4.8-2.2-4.8-4.8v-42.9c0-2.6 2.2-4.8 4.8-4.8h21.5c2.6 0 4.8 2.2 4.8 4.8v42.9c0 2.7-2.2 4.8-4.9 4.8zm-21.4-50.5c-1.5 0-2.8 1.3-2.8 2.8v42.9c0 1.5 1.3 2.8 2.8 2.8h21.4c1.6 0 2.9-1.2 2.9-2.8v-42.9c0-1.5-1.3-2.8-2.8-2.8z" fill="#ffffff" fill-opacity="1" data-original-color="#000000ff" stroke="none" stroke-opacity="1"/></g><g><g><path d="m37.6 19.1c-.3 0-.5-.1-.7-.3s-.3-.5-.3-.7c0-.3.1-.5.3-.7.4-.4 1-.4 1.4 0 .2.2.3.5.3.7 0 .3-.1.5-.3.7s-.4.3-.7.3z" fill="#ffffff" fill-opacity="1" data-original-color="#000000ff" stroke="none" stroke-opacity="1"/></g><g><path d="m34.1 19.1h-5.7c-.6 0-1-.4-1-1s.4-1 1-1h5.7c.6 0 1 .4 1 1s-.4 1-1 1z" fill="#ffffff" fill-opacity="1" data-original-color="#000000ff" stroke="none" stroke-opacity="1"/></g></g><g><path d="m33 61.3c-1.8 0-3.2-1.4-3.2-3.2s1.4-3.2 3.2-3.2 3.2 1.4 3.2 3.2-1.4 3.2-3.2 3.2zm0-4.4c-.7 0-1.2.5-1.2 1.2s.5 1.2 1.2 1.2 1.2-.5 1.2-1.2-.5-1.2-1.2-1.2z" fill="#ffffff" fill-opacity="1" data-original-color="#000000ff" stroke="none" stroke-opacity="1"/></g><g><g><path d="m29.7 40.1h-5c-.6 0-1-.4-1-1v-4.4c0-.6.4-1 1-1h5c.6 0 1 .4 1 1v4.4c0 .6-.4 1-1 1zm-4-2h3v-2.4h-3z" fill="#ffffff" fill-opacity="1" data-original-color="#000000ff" stroke="none" stroke-opacity="1"/></g><g><path d="m41.2 40.1h-5c-.6 0-1-.4-1-1v-4.4c0-.6.4-1 1-1h5c.6 0 1 .4 1 1v4.4c0 .6-.4 1-1 1zm-4-2h3v-2.4h-3z" fill="#ffffff" fill-opacity="1" data-original-color="#000000ff" stroke="none" stroke-opacity="1"/></g><g><path d="m29.7 29.9h-5c-.6 0-1-.4-1-1v-4.4c0-.6.4-1 1-1h5c.6 0 1 .4 1 1v4.4c0 .6-.4 1-1 1zm-4-2h3v-2.4h-3z" fill="#ffffff" fill-opacity="1" data-original-color="#000000ff" stroke="none" stroke-opacity="1"/></g><g><path d="m41.2 29.9h-5c-.6 0-1-.4-1-1v-4.4c0-.6.4-1 1-1h5c.6 0 1 .4 1 1v4.4c0 .6-.4 1-1 1zm-4-2h3v-2.4h-3z" fill="#ffffff" fill-opacity="1" data-original-color="#000000ff" stroke="none" stroke-opacity="1"/></g><g><path d="m29.7 50.4h-5c-.6 0-1-.4-1-1v-4.4c0-.6.4-1 1-1h5c.6 0 1 .4 1 1v4.4c0 .6-.4 1-1 1zm-4-2h3v-2.4h-3z" fill="#ffffff" fill-opacity="1" data-original-color="#000000ff" stroke="none" stroke-opacity="1"/></g><g><path d="m41.2 50.4h-5c-.6 0-1-.4-1-1v-4.4c0-.6.4-1 1-1h5c.6 0 1 .4 1 1v4.4c0 .6-.4 1-1 1zm-4-2h3v-2.4h-3z" fill="#ffffff" fill-opacity="1" data-original-color="#000000ff" stroke="none" stroke-opacity="1"/></g></g></g></g></g></svg>