<svg width="21" height="21" viewBox="0 0 21 21" fill="none" xmlns="http://www.w3.org/2000/svg">
<path d="M10.5047 5.11587C7.52443 5.11587 5.12055 7.51975 5.12055 10.5C5.12055 13.4803 7.52443 15.8841 10.5047 15.8841C13.4849 15.8841 15.8888 13.4803 15.8888 10.5C15.8888 7.51975 13.4849 5.11587 10.5047 5.11587ZM10.5047 14.0004C8.57877 14.0004 7.0043 12.4306 7.0043 10.5C7.0043 8.5694 8.57408 6.99961 10.5047 6.99961C12.4353 6.99961 14.0051 8.5694 14.0051 10.5C14.0051 12.4306 12.4306 14.0004 10.5047 14.0004ZM17.3649 4.89563C17.3649 5.59383 16.8026 6.15146 16.1091 6.15146C15.4109 6.15146 14.8532 5.58914 14.8532 4.89563C14.8532 4.20211 15.4155 3.6398 16.1091 3.6398C16.8026 3.6398 17.3649 4.20211 17.3649 4.89563ZM20.9309 6.1702C20.8512 4.48795 20.467 2.99782 19.2346 1.77011C18.0069 0.542396 16.5167 0.15815 14.8345 0.0738034C13.1007 -0.0246011 7.90399 -0.0246011 6.1702 0.0738034C4.49264 0.153464 3.00251 0.537711 1.77011 1.76542C0.537711 2.99314 0.15815 4.48326 0.0738034 6.16551C-0.0246011 7.89931 -0.0246011 13.096 0.0738034 14.8298C0.153464 16.512 0.537711 18.0022 1.77011 19.2299C3.00251 20.4576 4.48795 20.8419 6.1702 20.9262C7.90399 21.0246 13.1007 21.0246 14.8345 20.9262C16.5167 20.8465 18.0069 20.4623 19.2346 19.2299C20.4623 18.0022 20.8465 16.512 20.9309 14.8298C21.0293 13.096 21.0293 7.90399 20.9309 6.1702ZM18.691 16.6901C18.3255 17.6086 17.6179 18.3161 16.6948 18.6863C15.3125 19.2346 12.0323 19.1081 10.5047 19.1081C8.97707 19.1081 5.69223 19.2299 4.31457 18.6863C3.39613 18.3208 2.68855 17.6132 2.31836 16.6901C1.77011 15.3078 1.89663 12.0276 1.89663 10.5C1.89663 8.97239 1.7748 5.68755 2.31836 4.30989C2.68387 3.39144 3.39144 2.68387 4.31457 2.31368C5.69692 1.76542 8.97707 1.89194 10.5047 1.89194C12.0323 1.89194 15.3171 1.77011 16.6948 2.31368C17.6132 2.67918 18.3208 3.38676 18.691 4.30989C19.2393 5.69223 19.1127 8.97239 19.1127 10.5C19.1127 12.0276 19.2393 15.3125 18.691 16.6901Z" fill="#0A1828"/>
</svg>
