<svg clip-rule="evenodd" fill-rule="evenodd" height="300" image-rendering="optimizeQuality" shape-rendering="geometricPrecision" text-rendering="geometricPrecision" viewBox="0 0 512 512" width="300" xmlns="http://www.w3.org/2000/svg" version="1.1" xmlns:xlink="http://www.w3.org/1999/xlink" xmlns:svgjs="http://svgjs.dev/svgjs"><g width="100%" height="100%" transform="matrix(1,0,0,1,0,0)"><g id="Layer_x0020_1"><g fill="#95748f"><path d="m222 39h-17c-4 0-6-3-6-6s2-6 6-6h17c3 0 6 3 6 6s-3 6-6 6z" fill="#ffffff" fill-opacity="1" data-original-color="#95748fff" stroke="none" stroke-opacity="1"/><path d="m307 39h-51c-3 0-6-3-6-6s3-6 6-6h51c4 0 6 3 6 6s-2 6-6 6z" fill="#ffffff" fill-opacity="1" data-original-color="#95748fff" stroke="none" stroke-opacity="1"/><path d="m391 512h-270c-21 0-38-17-38-38v-436c0-21 17-38 38-38h270c21 0 38 17 38 38v436c0 21-17 38-38 38zm-270-500c-14 0-26 12-26 26v436c0 14 12 26 26 26h270c14 0 26-12 26-26v-436c0-14-12-26-26-26z" fill="#ffffff" fill-opacity="1" data-original-color="#95748fff" stroke="none" stroke-opacity="1"/><path d="m423 66h-334c-3 0-6-3-6-6s3-6 6-6h334c3 0 6 3 6 6s-3 6-6 6z" fill="#ffffff" fill-opacity="1" data-original-color="#95748fff" stroke="none" stroke-opacity="1"/><path d="m423 458h-334c-3 0-6-3-6-6s3-6 6-6h334c3 0 6 3 6 6s-3 6-6 6z" fill="#ffffff" fill-opacity="1" data-original-color="#95748fff" stroke="none" stroke-opacity="1"/><path d="m284 485h-56c-3 0-6-3-6-6s3-6 6-6h56c3 0 6 3 6 6s-3 6-6 6z" fill="#ffffff" fill-opacity="1" data-original-color="#95748fff" stroke="none" stroke-opacity="1"/><path d="m145 323c-3 0-6-3-6-6v-31c0-10 8-18 17-18h196c9 0 17 8 17 18v4c0 3-3 6-6 6-4 0-6-3-6-6v-4c0-3-2-6-5-6h-196c-3 0-5 3-5 6v31c0 3-2 6-6 6z" fill="#ffffff" fill-opacity="1" data-original-color="#95748fff" stroke="none" stroke-opacity="1"/><path d="m275 323c-1 0-2 0-4 0h-149c-3 0-6-3-6-6s3-6 6-6h149 1c9 0 10 0 12-5 2-2 4-5 8-9 10-11 23-11 28-11h70c3 0 6 3 6 6 0 4-3 6-6 6h-70c-4 0-13 0-20 7-2 3-4 6-5 8-5 7-8 10-20 10z" fill="#ffffff" fill-opacity="1" data-original-color="#95748fff" stroke="none" stroke-opacity="1"/><path d="m371 436h-230c-13 0-25-11-25-25v-165c0-7 3-14 8-19s12-8 19-8h49c5 0 19 0 29 16 8 12 12 12 28 10h4 117 1c13 0 25 11 25 25v141c0 14-12 25-25 25zm-228-205c-4 0-7 2-10 5s-5 6-5 10v165c0 8 6 13 13 13h230c7 0 13-5 13-13v-141c0-7-6-13-13-13h-117c-2 0-3 0-4 0-16 2-27 3-39-16-7-10-15-10-19-10z" fill="#ffffff" fill-opacity="1" data-original-color="#95748fff" stroke="none" stroke-opacity="1"/><path d="m315 229h-10c-5 0-9-4-9-9l-1-12c-5-1-9-3-13-6l-9 8c-2 2-4 2-7 2-2 0-4-1-6-2l-7-7c-4-4-4-10-1-13l8-9c-2-5-4-9-6-13l-11-1c-5-1-9-5-9-10v-10c0-5 4-9 9-9l11-1c2-5 3-9 6-14l-8-8c-3-4-3-10 1-13l7-8c2-1 4-2 6-2 3 0 5 1 7 2l9 8c4-3 8-5 13-6l1-11c0-6 4-9 9-9h10c5 0 9 3 10 9l1 11c4 1 9 3 13 6l9-8c2-1 4-2 6-2 3 0 5 1 7 2l7 8c3 3 4 9 0 13l-7 8c2 5 4 9 5 14l12 1c5 0 9 4 9 9v10c0 5-4 9-9 10l-12 1c-1 4-3 8-5 13l7 9c4 3 3 9 0 13l-7 7c-2 1-4 2-7 2-2 0-4 0-6-2l-9-8c-4 3-9 5-13 6l-1 12c-1 5-5 9-10 9zm-7-12h5l1-14c0-3 2-5 5-6 6-1 12-3 17-7 2-1 5-1 7 0l11 10 4-4-9-11c-2-2-2-5-1-7 4-5 6-11 7-17 1-3 3-5 6-5l14-1v-6l-14-1c-3 0-5-2-6-5-1-6-3-12-7-17-1-2-1-5 1-7l9-11-4-3-11 9c-2 1-5 2-7 0-5-4-11-6-17-7-3-1-5-3-5-5l-1-14h-5l-2 14c0 2-2 4-4 5-7 1-12 3-17 7-3 2-6 1-8 0l-10-9-4 3 9 11c2 2 2 5 0 7-3 5-6 11-7 17 0 3-3 5-5 5l-14 1v6l14 1c2 0 5 2 5 5 1 6 4 12 7 17 2 2 2 5 0 7l-9 11 4 4 10-9c2-2 5-2 8-1 5 4 10 6 17 7 2 1 4 3 4 6z" fill="#ffffff" fill-opacity="1" data-original-color="#95748fff" stroke="none" stroke-opacity="1"/></g><path d="m310 184c-17 0-32-14-32-32s15-32 32-32c18 0 32 14 32 32s-14 32-32 32z" fill="#707070" fill-opacity="1" data-original-color="#b8a7bcff" stroke="none" stroke-opacity="1"/><path d="m149 213c-4 0-6-3-6-6 0-47 38-85 85-85 4 0 6 2 6 6 0 3-2 6-6 6-40 0-73 33-73 73 0 3-3 6-6 6z" fill="#ffffff" fill-opacity="1" data-original-color="#95748fff" stroke="none" stroke-opacity="1"/></g></g></svg>