<svg id="landing_page" viewBox="0 0 64 64" xmlns="http://www.w3.org/2000/svg" width="300" height="300" version="1.1" xmlns:xlink="http://www.w3.org/1999/xlink" xmlns:svgjs="http://svgjs.dev/svgjs"><g width="100%" height="100%" transform="matrix(1,0,0,1,0,0)"><path d="m55 6.99h-46c-3.86 0-7 3.14-7 7v36.02c0 3.86 3.14 7 7 7h46c3.86 0 7-3.14 7-7v-36.02c0-3.86-3.14-7-7-7zm-44.76 4.74c1.85 0 3.36 1.51 3.36 3.36s-1.51 3.36-3.36 3.36-3.36-1.51-3.36-3.36 1.5-3.36 3.36-3.36zm21.61 3.36c0 1.85-1.51 3.36-3.36 3.36s-3.36-1.51-3.36-3.36 1.51-3.36 3.36-3.36 3.36 1.51 3.36 3.36zm-9.13 0c0 1.85-1.5 3.36-3.36 3.36s-3.36-1.51-3.36-3.36 1.51-3.36 3.36-3.36 3.36 1.51 3.36 3.36zm37.28 34.92c0 2.75-2.24 5-5 5h-46c-2.76 0-5-2.25-5-5v-26.82h56z" fill="#ffffff" fill-opacity="1" data-original-color="#000000ff" stroke="none" stroke-opacity="1"/><path d="m34.69 32.38h19.21c.55 0 1-.45 1-1s-.45-1-1-1h-19.21c-.55 0-1 .45-1 1s.45 1 1 1z" fill="#ffffff" fill-opacity="1" data-original-color="#000000ff" stroke="none" stroke-opacity="1"/><path d="m34.69 36.91h19.21c.55 0 1-.45 1-1s-.45-1-1-1h-19.21c-.55 0-1 .45-1 1s.45 1 1 1z" fill="#ffffff" fill-opacity="1" data-original-color="#000000ff" stroke="none" stroke-opacity="1"/><path d="m10.84 38.88h16.08c.68 0 1.28-.37 1.57-.98s.2-1.32-.23-1.84l-5.72-7.02c-.66-.81-2.02-.81-2.68 0l-3.05 3.73-.97-1.19c-.33-.41-.82-.64-1.34-.64h-.01c-.52 0-1.01.23-1.34.64l-3.65 4.48c-.43.52-.51 1.23-.22 1.84s.88.98 1.56.98z" fill="#ffffff" fill-opacity="1" data-original-color="#000000ff" stroke="none" stroke-opacity="1"/><path d="m41.27 43.21h-18.54c-1.82 0-3.3 1.48-3.3 3.29s1.48 3.29 3.3 3.29h18.54c1.82 0 3.3-1.47 3.3-3.29s-1.48-3.29-3.3-3.29z" fill="#ffffff" fill-opacity="1" data-original-color="#000000ff" stroke="none" stroke-opacity="1"/></g></svg>