<svg id="Layer_1" height="300" viewBox="0 0 24 24" width="300" xmlns="http://www.w3.org/2000/svg" version="1.1" xmlns:xlink="http://www.w3.org/1999/xlink" xmlns:svgjs="http://svgjs.dev/svgjs"><g width="100%" height="100%" transform="matrix(1,0,0,1,0,0)"><path d="m19.5 4h-15c-1.4 0-2.5 1.1-2.5 2.5v11c0 1.4 1.1 2.5 2.5 2.5h15c1.4 0 2.5-1.1 2.5-2.5v-11c0-1.4-1.1-2.5-2.5-2.5zm-15 1h15c.8 0 1.5.7 1.5 1.5v1.5h-18v-1.5c0-.8.7-1.5 1.5-1.5zm15 14h-15c-.8 0-1.5-.7-1.5-1.5v-8.5h18v8.5c0 .8-.7 1.5-1.5 1.5z" fill="#ffffff" fill-opacity="1" data-original-color="#000000ff" stroke="none" stroke-opacity="1"/><circle cx="4.5" cy="6.5" r=".5" fill="#ffffff" fill-opacity="1" data-original-color="#000000ff" stroke="none" stroke-opacity="1"/><circle cx="6.5" cy="6.5" r=".5" fill="#ffffff" fill-opacity="1" data-original-color="#000000ff" stroke="none" stroke-opacity="1"/><circle cx="8.5" cy="6.5" r=".5" fill="#ffffff" fill-opacity="1" data-original-color="#000000ff" stroke="none" stroke-opacity="1"/><path d="m12.5 7h7c.3 0 .5-.2.5-.5s-.2-.5-.5-.5h-7c-.3 0-.5.2-.5.5s.2.5.5.5z" fill="#ffffff" fill-opacity="1" data-original-color="#000000ff" stroke="none" stroke-opacity="1"/><path d="m11.5 10.5h-5.5c-.2 0-.5.2-.5.4l-1 6c0 .1 0 .3.1.4s.2.2.4.2h7.5c.1 0 .3-.1.4-.2s.1-.3.1-.4l-1-6c0-.2-.3-.4-.5-.4zm-5.9 6 .8-5h4.7l.8 5z" fill="#ffffff" fill-opacity="1" data-original-color="#000000ff" stroke="none" stroke-opacity="1"/><path d="m10 12c-.3 0-.5.2-.5.5v.8c0 .4-.3.8-.8.8s-.7-.4-.7-.8v-.8c0-.3-.2-.5-.5-.5s-.5.2-.5.5v.8c0 1 .8 1.8 1.8 1.8s1.8-.8 1.8-1.8v-.8c-.1-.3-.3-.5-.6-.5z" fill="#ffffff" fill-opacity="1" data-original-color="#000000ff" stroke="none" stroke-opacity="1"/><path d="m19 10.5h-4.5c-.3 0-.5.2-.5.5s.2.5.5.5h4.5c.3 0 .5-.2.5-.5s-.2-.5-.5-.5z" fill="#ffffff" fill-opacity="1" data-original-color="#000000ff" stroke="none" stroke-opacity="1"/><path d="m19 16.5h-4.5c-.3 0-.5.2-.5.5s.2.5.5.5h4.5c.3 0 .5-.2.5-.5s-.2-.5-.5-.5z" fill="#ffffff" fill-opacity="1" data-original-color="#000000ff" stroke="none" stroke-opacity="1"/><path d="m19 13.5h-4.5c-.3 0-.5.2-.5.5s.2.5.5.5h4.5c.3 0 .5-.2.5-.5s-.2-.5-.5-.5z" fill="#ffffff" fill-opacity="1" data-original-color="#000000ff" stroke="none" stroke-opacity="1"/><path d="m19 12h-2.5c-.3 0-.5.2-.5.5s.2.5.5.5h2.5c.3 0 .5-.2.5-.5s-.2-.5-.5-.5z" fill="#ffffff" fill-opacity="1" data-original-color="#000000ff" stroke="none" stroke-opacity="1"/><path d="m19 15h-2.5c-.3 0-.5.2-.5.5s.2.5.5.5h2.5c.3 0 .5-.2.5-.5s-.2-.5-.5-.5z" fill="#ffffff" fill-opacity="1" data-original-color="#000000ff" stroke="none" stroke-opacity="1"/></g></svg>