<svg id="Layer_1" enable-background="new 0 0 66 66" viewBox="0 0 66 66" xmlns="http://www.w3.org/2000/svg" width="300" height="300" version="1.1" xmlns:xlink="http://www.w3.org/1999/xlink" xmlns:svgjs="http://svgjs.dev/svgjs"><g width="100%" height="100%" transform="matrix(1,0,0,1,0,0)"><g><path d="m5.06 59.54c-1.26 0-2.29-1.03-2.29-2.29v-8.59c0-1.26 1.03-2.29 2.29-2.29h11.67c1.26 0 2.29 1.03 2.29 2.29v8.59c0 1.26-1.03 2.29-2.29 2.29zm47.84-54.28h-39.8c-3.93 0-7.13 3.19-7.13 7.13v3.48 29.29h-.91c-1.93 0-3.49 1.57-3.49 3.49v8.59c0 1.93 1.57 3.49 3.49 3.49h11.67c.53 0 1.04-.12 1.49-.34h23.85c.33 0 .6-.27.6-.6s-.27-.6-.6-.6h-22.45c.38-.56.6-1.23.6-1.95v-8.59c0-1.92-1.57-3.49-3.49-3.49h-9.55v-28.69h51.65v25.37c0 .33.27.6.6.6s.6-.27.6-.6v-25.97-.01-3.47c0-3.93-3.2-7.13-7.13-7.13zm-39.13 7.13c-.84 0-1.52-.68-1.52-1.52s.68-1.52 1.52-1.52 1.52.68 1.52 1.52c.01.83-.68 1.52-1.52 1.52zm6.5 0c-.84 0-1.52-.68-1.52-1.52s.68-1.52 1.52-1.52 1.53.68 1.53 1.52c0 .83-.69 1.52-1.53 1.52zm6.5 0c-.84 0-1.52-.68-1.52-1.52s.68-1.52 1.52-1.52 1.53.68 1.53 1.52c0 .83-.69 1.52-1.53 1.52zm25.45 0h-13.57c-.84 0-1.52-.68-1.52-1.52s.68-1.52 1.52-1.52h13.57c.84 0 1.53.68 1.53 1.52 0 .83-.68 1.52-1.53 1.52z" fill="#ffffff" fill-opacity="1" data-original-color="#000000ff" stroke="none" stroke-opacity="1"/><path d="m10.98 48.59c-.64-.51-1.5-.61-2.24-.26s-1.2 1.08-1.2 1.9v5.42c0 .82.46 1.55 1.2 1.9.29.14.61.21.92.21.47 0 .93-.16 1.32-.47l3.38-2.71c.5-.4.79-1 .79-1.65 0-.64-.29-1.25-.79-1.65zm2.64 5.07-3.38 2.71c-.28.22-.64.26-.96.11s-.51-.46-.51-.82v-5.42c0-.36.19-.66.52-.82.13-.06.26-.09.4-.09.2 0 .4.07.56.2l3.38 2.71c.22.17.34.43.34.71s-.14.54-.35.71z" fill="#ffffff" fill-opacity="1" data-original-color="#000000ff" stroke="none" stroke-opacity="1"/><path d="m64.44 47.37c0-1.25-1.02-2.27-2.27-2.27h-14.58c-1.25 0-2.27 1.02-2.27 2.27v10.7c0 .72.33 1.38.9 1.81.4.3.87.46 1.37.46h9.53 5.04c.62 0 1.23-.26 1.65-.71.02-.02.04-.05.06-.07 0 0 .01-.01.01-.01.35-.41.56-.93.56-1.48zm-17.92 0c0-.59.48-1.07 1.07-1.07h14.57c.59 0 1.07.48 1.07 1.07v10.54l-2.5-3.78c-.34-.52-.92-.83-1.55-.83-.62 0-1.2.31-1.55.83l-1.75 2.64-2.59-3.9c-.34-.52-.92-.83-1.55-.83-.62 0-1.2.31-1.55.83l-3.63 5.48c-.02-.09-.04-.18-.04-.28zm1.07 11.76c-.04 0-.07 0-.1-.01l3.71-5.59c.12-.19.32-.29.54-.29s.42.11.54.29l3.09 4.66s.01.01.01.01l.62.93zm9.86 0-.84-1.27 2.03-3.07c.25-.37.84-.37 1.09 0l2.83 4.26c-.12.05-.25.08-.39.08z" fill="#ffffff" fill-opacity="1" data-original-color="#000000ff" stroke="none" stroke-opacity="1"/><path d="m55.77 52.28c1.1 0 1.99-.89 1.99-1.99s-.89-1.99-1.99-1.99-1.99.89-1.99 1.99.9 1.99 1.99 1.99z" fill="#ffffff" fill-opacity="1" data-original-color="#000000ff" stroke="none" stroke-opacity="1"/><path d="m53.99 20.94h-12.05c-.33 0-.6.27-.6.6s.27.6.6.6h12.05c.33 0 .6-.27.6-.6s-.27-.6-.6-.6z" fill="#ffffff" fill-opacity="1" data-original-color="#000000ff" stroke="none" stroke-opacity="1"/><path d="m12.01 22.15h12.05c.33 0 .6-.27.6-.6s-.27-.6-.6-.6h-12.05c-.33 0-.6.27-.6.6s.27.6.6.6z" fill="#ffffff" fill-opacity="1" data-original-color="#000000ff" stroke="none" stroke-opacity="1"/><path d="m53.99 26.62h-8.58c-.33 0-.6.27-.6.6s.27.6.6.6h8.58c.33 0 .6-.27.6-.6s-.27-.6-.6-.6z" fill="#ffffff" fill-opacity="1" data-original-color="#000000ff" stroke="none" stroke-opacity="1"/><path d="m12.01 27.82h8.58c.33 0 .6-.27.6-.6s-.27-.6-.6-.6h-8.58c-.33 0-.6.27-.6.6s.27.6.6.6z" fill="#ffffff" fill-opacity="1" data-original-color="#000000ff" stroke="none" stroke-opacity="1"/><path d="m53.99 32.29h-8.19c-.33 0-.6.27-.6.6s.27.6.6.6h8.19c.33 0 .6-.27.6-.6s-.27-.6-.6-.6z" fill="#ffffff" fill-opacity="1" data-original-color="#000000ff" stroke="none" stroke-opacity="1"/><path d="m12.01 33.5h8.19c.33 0 .6-.27.6-.6s-.27-.6-.6-.6h-8.19c-.33 0-.6.27-.6.6s.27.6.6.6z" fill="#ffffff" fill-opacity="1" data-original-color="#000000ff" stroke="none" stroke-opacity="1"/><path d="m43.43 39.17h10.56c.33 0 .6-.27.6-.6s-.27-.6-.6-.6h-10.56c-.33 0-.6.27-.6.6s.27.6.6.6z" fill="#ffffff" fill-opacity="1" data-original-color="#000000ff" stroke="none" stroke-opacity="1"/><path d="m12.01 39.17h10.56c.33 0 .6-.27.6-.6s-.27-.6-.6-.6h-10.56c-.33 0-.6.27-.6.6s.27.6.6.6z" fill="#ffffff" fill-opacity="1" data-original-color="#000000ff" stroke="none" stroke-opacity="1"/><path d="m43.43 43.65h-20.86c-.33 0-.6.27-.6.6s.27.6.6.6h20.87c.33 0 .6-.27.6-.6-.01-.34-.28-.6-.61-.6z" fill="#ffffff" fill-opacity="1" data-original-color="#000000ff" stroke="none" stroke-opacity="1"/><path d="m39.2 50.53c.33 0 .6-.27.6-.6s-.27-.6-.6-.6h-12.4c-.33 0-.6.27-.6.6s.27.6.6.6z" fill="#ffffff" fill-opacity="1" data-original-color="#000000ff" stroke="none" stroke-opacity="1"/><path d="m33 41.57c5.88 0 10.66-4.78 10.66-10.66s-4.78-10.67-10.66-10.67-10.66 4.78-10.66 10.66 4.78 10.67 10.66 10.67zm0-20.12c5.21 0 9.46 4.24 9.46 9.46s-4.24 9.46-9.46 9.46-9.46-4.24-9.46-9.46 4.24-9.46 9.46-9.46z" fill="#ffffff" fill-opacity="1" data-original-color="#000000ff" stroke="none" stroke-opacity="1"/><path d="m28.69 32.25 5.79 3.24c-.03.15-.05.3-.05.46 0 1.16.95 2.11 2.11 2.11s2.11-.95 2.11-2.11c0-1.17-.95-2.11-2.11-2.11-.57 0-1.09.23-1.47.6l-5.79-3.24c.03-.15.05-.31.05-.46 0-.16-.02-.31-.05-.46l5.59-3.13c.39.5.99.83 1.67.83 1.16 0 2.11-.95 2.11-2.11s-.95-2.11-2.11-2.11-2.11.95-2.11 2.11c0 .05.01.1.01.15l-5.75 3.21c-.39-.38-.91-.6-1.47-.6-1.17 0-2.12.95-2.12 2.11s.95 2.11 2.12 2.11c.56 0 1.08-.22 1.47-.6z" fill="#ffffff" fill-opacity="1" data-original-color="#000000ff" stroke="none" stroke-opacity="1"/></g></g></svg>