<svg width="15" height="12" viewBox="0 0 15 12" fill="none" xmlns="http://www.w3.org/2000/svg">
<path d="M9.5522 0.0578117H10.2102L10.4482 0.0998116L10.5462 0.127811C10.7049 0.165145 10.8169 0.197811 10.8822 0.225811C11.0222 0.281812 11.1529 0.340145 11.2742 0.400811C11.3955 0.461478 11.5029 0.529145 11.5962 0.603811C11.6615 0.650478 11.7502 0.720478 11.8622 0.813811C11.9369 0.888478 12.0582 0.911812 12.2262 0.883812L12.7582 0.729812L12.8842 0.687812C13.0802 0.613145 13.2249 0.552478 13.3182 0.505812C13.5049 0.421811 13.6169 0.365811 13.6542 0.337811L13.7242 0.309812V0.295812H13.7382L13.7522 0.281812H13.7662L13.7942 0.253812H13.8082V0.295812L13.7942 0.309812V0.337811H13.7802V0.351811L13.7662 0.379811C13.7662 0.398479 13.7639 0.414811 13.7592 0.428811C13.7545 0.442811 13.7172 0.519812 13.6472 0.659811C13.5772 0.799811 13.4815 0.953812 13.3602 1.12181C13.2855 1.21515 13.1829 1.32714 13.0522 1.45781C12.9869 1.50448 12.9285 1.55348 12.8772 1.60481C12.8259 1.65615 12.7862 1.68648 12.7582 1.69581L12.6882 1.75181H12.6742V1.76581H12.6602L12.6462 1.77981H12.6322V1.79381H12.6182V1.80781H12.6042H12.6742L13.0242 1.72381C13.2669 1.67715 13.4909 1.62115 13.6962 1.55581L14.0462 1.44381L14.1022 1.41581H14.1162L14.1302 1.40181H14.1442L14.1722 1.38781H14.2002V1.41581H14.1862V1.42981H14.1722V1.44381H14.1582V1.45781H14.1442V1.47181C14.1442 1.48114 14.0882 1.55581 13.9762 1.69581L13.8922 1.80781C13.8455 1.87315 13.8175 1.90581 13.8082 1.90581C13.7989 1.90581 13.7942 1.91048 13.7942 1.91981L13.7802 1.93381C13.7615 1.96181 13.6682 2.05515 13.5002 2.21381C13.3882 2.33514 13.2295 2.47981 13.0242 2.64781C12.8655 2.77848 12.7862 2.93248 12.7862 3.10981C12.7862 3.21248 12.7769 3.39448 12.7582 3.65581V3.73981C12.7489 3.87048 12.7209 4.08048 12.6742 4.36981L12.6602 4.49581C12.6135 4.77581 12.5435 5.07681 12.4502 5.39881C12.3569 5.72081 12.2355 6.05448 12.0862 6.39981C11.9742 6.68915 11.8295 6.97848 11.6522 7.26781C11.5215 7.51048 11.3862 7.72981 11.2462 7.92581L10.8542 8.42981C10.7329 8.57915 10.5695 8.75648 10.3642 8.96181L10.0282 9.28381L9.7902 9.47981C9.7062 9.54515 9.5802 9.64315 9.4122 9.77381L9.1882 9.92781C9.03886 10.0305 8.93153 10.1005 8.8662 10.1378L8.3622 10.4038C8.11953 10.5251 7.90486 10.6185 7.7182 10.6838C7.6062 10.7305 7.4242 10.7958 7.1722 10.8798L7.0042 10.9358C6.74286 11.0105 6.5002 11.0665 6.2762 11.1038C5.97753 11.1598 5.71153 11.1971 5.4782 11.2158L5.0302 11.2578H4.2042L4.0922 11.2438C4.0082 11.2438 3.9522 11.2391 3.9242 11.2298L3.3922 11.1738C3.10286 11.1271 2.86486 11.0851 2.6782 11.0478C2.58486 11.0291 2.39353 10.9685 2.1042 10.8658L1.9082 10.8098C1.49753 10.6605 1.2082 10.5438 1.0402 10.4598C0.778862 10.3291 0.624862 10.2545 0.578195 10.2358L0.494195 10.1798C0.447529 10.1518 0.410195 10.1285 0.382195 10.1098L0.270195 10.0398H0.256195L0.242195 10.0258H0.228195V10.0118H0.214195V9.99781H0.200195V9.98381H0.284195C0.302862 9.99315 0.354195 9.99781 0.438195 9.99781L0.592195 10.0118H1.1242C1.38553 9.99315 1.58153 9.97448 1.7122 9.95581C1.8802 9.92781 2.11353 9.87648 2.4122 9.80181C2.6922 9.72715 2.93953 9.64315 3.1542 9.54981L3.6302 9.33981C3.75153 9.27448 3.8962 9.18581 4.0642 9.07381L4.3582 8.87781V8.86381H4.3722L4.3862 8.84981H4.4002V8.83581L4.4142 8.82181L4.3162 8.80781C4.2322 8.80781 4.16686 8.80315 4.1202 8.79381C4.0362 8.79381 3.9382 8.77515 3.8262 8.73781C3.75153 8.71915 3.6302 8.68181 3.4622 8.62581L3.3922 8.59781C3.28953 8.55115 3.13553 8.47181 2.9302 8.35981L2.8322 8.28981C2.7202 8.21515 2.64553 8.15915 2.6082 8.12181L2.3562 7.86981C2.30953 7.82315 2.23953 7.73915 2.1462 7.61781L2.0902 7.53381C2.02486 7.43115 1.95486 7.29581 1.8802 7.12781L1.7682 6.90381V6.88981L1.7542 6.87581V6.84781H1.7962L1.9362 6.87581C1.9922 6.88515 2.13686 6.88981 2.3702 6.88981L2.5802 6.87581C2.68286 6.87581 2.7482 6.87115 2.7762 6.86181L2.9442 6.83381L2.9722 6.81981H3.0002V6.80581H3.0142L2.9862 6.79181H2.9722L2.9442 6.77781H2.8882C2.87886 6.76848 2.86486 6.76381 2.8462 6.76381L2.8042 6.74981C2.73886 6.72181 2.6222 6.67515 2.4542 6.60981C2.2582 6.51648 2.11353 6.44181 2.0202 6.38581C1.94553 6.32981 1.84286 6.24581 1.7122 6.13381C1.64686 6.07781 1.5442 5.97048 1.4042 5.81181L1.3762 5.78381C1.2362 5.60648 1.13353 5.44315 1.0682 5.29381C0.974862 5.11648 0.904862 4.93915 0.858195 4.76181C0.802195 4.53781 0.769529 4.36515 0.760195 4.24381L0.746195 3.99181H0.774195L0.788195 4.00581H0.802195L0.816195 4.01981L1.0122 4.10381C1.18953 4.17848 1.35286 4.22981 1.5022 4.25781L1.8522 4.32781H2.0202H2.0062V4.31381H1.9922V4.29981H1.9782L1.9642 4.28581H1.9502L1.8242 4.18781C1.77753 4.15048 1.70286 4.08048 1.6002 3.97781L1.3762 3.72581C1.33886 3.67914 1.2922 3.61381 1.2362 3.52981L1.1662 3.43181C1.11953 3.32914 1.05886 3.19381 0.984195 3.02581C0.909529 2.82048 0.862862 2.66181 0.844195 2.54981C0.806862 2.40981 0.788195 2.25115 0.788195 2.07381C0.778862 1.99914 0.778862 1.90114 0.788195 1.77981V1.66781C0.806862 1.55581 0.834862 1.42981 0.872195 1.28981L0.886195 1.24781C0.942195 1.07048 0.993529 0.935144 1.0402 0.841811L1.1382 0.603811L1.1522 0.589811V0.561811H1.1802V0.575811H1.1942V0.589811L1.2082 0.603811V0.617811L1.3762 0.799811C1.45086 0.883812 1.5862 1.02381 1.7822 1.21981C1.9222 1.35981 2.01086 1.43915 2.0482 1.45781C2.05753 1.45781 2.06686 1.46714 2.0762 1.48581L2.1042 1.51381C2.1322 1.54181 2.2162 1.61181 2.3562 1.72381C2.43086 1.78914 2.57553 1.89648 2.7902 2.04581L2.9162 2.12981C3.17753 2.29781 3.4342 2.45181 3.6862 2.59181C4.0782 2.77848 4.38153 2.91381 4.5962 2.99781L4.6662 3.02581C5.0022 3.13781 5.20753 3.20315 5.2822 3.22181C5.44086 3.27781 5.66486 3.32914 5.9542 3.37581C6.08486 3.40381 6.25286 3.43181 6.4582 3.45981L6.6682 3.48781L6.9902 3.51581H7.0742V3.47381L7.0462 3.31981C7.02753 3.18915 7.0182 3.04448 7.0182 2.88581C7.0182 2.68048 7.03453 2.50781 7.0672 2.36781C7.09986 2.22781 7.1442 2.07381 7.2002 1.90581C7.2562 1.73781 7.3122 1.60248 7.3682 1.49981C7.40553 1.43448 7.4802 1.32948 7.5922 1.18481C7.7042 1.04014 7.82553 0.907145 7.9562 0.785811C8.14286 0.636478 8.31086 0.519812 8.4602 0.435811C8.6282 0.342478 8.80086 0.263144 8.9782 0.197811C9.15553 0.132478 9.29086 0.0951443 9.3842 0.0858116L9.5522 0.0578117Z" fill="white"/>
</svg>
