<svg width="21" height="15" viewBox="0 0 21 15" fill="none" xmlns="http://www.w3.org/2000/svg">
<path d="M20.5617 2.31069C20.3195 1.39949 19.6082 0.684365 18.7047 0.442146C17.0668 0 10.5 0 10.5 0C10.5 0 3.93317 0 2.29531 0.442146C1.3918 0.684365 0.68052 1.39949 0.438301 2.31069C0 3.96009 0 7.39729 0 7.39729C0 7.39729 0 10.8345 0.438301 12.4839C0.68052 13.3951 1.3918 14.0795 2.29531 14.3217C3.93317 14.7638 10.5 14.7638 10.5 14.7638C10.5 14.7638 17.0668 14.7638 18.7047 14.3217C19.6082 14.0795 20.3195 13.3913 20.5617 12.4839C21 10.8345 21 7.39729 21 7.39729C21 7.39729 21 3.96009 20.5617 2.31069ZM8.35463 10.5192V4.27536L13.8411 7.39729L8.35463 10.5192Z" fill="#0A1828"/>
</svg>
