<svg width="117" height="25" viewBox="0 0 117 25" fill="none" xmlns="http://www.w3.org/2000/svg">
<g clip-path="url(#clip0_447_5308)">
<path d="M112.196 8.5625H114.915L111.329 18.4143C110.305 21.2516 108.63 22.493 106.127 22.3551V19.9907C107.526 20.0104 108.236 19.4192 108.709 18.099L104.669 8.5625H107.448L110.009 15.183L112.196 8.5625Z" fill="#858892"/>
<path d="M100.09 8.28906C102.179 8.28906 103.814 9.74713 103.814 12.3677V18.4168H101.272V12.683C101.272 11.3431 100.464 10.6535 99.3215 10.6535C98.0802 10.6535 97.1541 11.3825 97.1541 13.0968V18.4168H94.6123V8.56491H97.1541V9.66831C97.7452 8.78165 98.7698 8.28906 100.09 8.28906Z" fill="#858892"/>
<path d="M89.7658 8.56491H92.3076V18.4168H89.7658V17.2543C89.0565 18.1409 87.9925 18.6926 86.5541 18.6926C83.9335 18.6926 81.7661 16.4267 81.7661 13.4908C81.7661 10.555 83.9335 8.28906 86.5541 8.28906C87.9925 8.28906 89.0565 8.84076 89.7658 9.72743V8.56491ZM87.027 16.2691C88.6033 16.2691 89.7658 15.146 89.7658 13.4908C89.7658 11.8357 88.6033 10.7126 87.027 10.7126C85.4704 10.7126 84.3079 11.8357 84.3079 13.4908C84.3079 15.146 85.4704 16.2691 87.027 16.2691Z" fill="#858892"/>
<path d="M75.6781 8.28906C78.3184 8.28906 80.4858 10.555 80.4858 13.4908C80.4858 16.4267 78.3184 18.6926 75.6781 18.6926C74.2398 18.6926 73.1955 18.1606 72.4861 17.2543V22.3575H69.9443V8.56491H72.4861V9.72743C73.1955 8.82106 74.2398 8.28906 75.6781 8.28906ZM75.2052 16.2691C76.7815 16.2691 77.944 15.146 77.944 13.4908C77.944 11.8357 76.7815 10.7126 75.2052 10.7126C73.6486 10.7126 72.4861 11.8357 72.4861 13.4908C72.4861 15.146 73.6486 16.2691 75.2052 16.2691Z" fill="#858892"/>
<path d="M64.0617 8.28906C66.3079 8.28906 67.7857 9.88506 67.7857 12.348V18.4168H65.2439V12.5254C65.2439 11.3628 64.6528 10.6535 63.5888 10.6535C62.4657 10.6535 61.7563 11.4023 61.7563 12.88V18.4168H59.2145V12.5254C59.2145 11.3628 58.6234 10.6535 57.5594 10.6535C56.4757 10.6535 55.7073 11.4023 55.7073 12.88V18.4168H53.1655V8.56491H55.7073V9.6092C56.259 8.78165 57.1851 8.28906 58.4461 8.28906C59.6677 8.28906 60.5741 8.80135 61.1258 9.70772C61.7366 8.82106 62.7218 8.28906 64.0617 8.28906Z" fill="#858892"/>
<path d="M46.1559 18.6926C43.2594 18.6926 40.9541 16.4267 40.9541 13.4908C40.9541 10.555 43.2594 8.28906 46.1559 8.28906C49.0523 8.28906 51.3773 10.555 51.3773 13.4908C51.3773 16.4267 49.0523 18.6926 46.1559 18.6926ZM46.1559 16.21C47.673 16.21 48.8356 15.0868 48.8356 13.4908C48.8356 11.8948 47.673 10.7717 46.1559 10.7717C44.6584 10.7717 43.4959 11.8948 43.4959 13.4908C43.4959 15.0868 44.6584 16.21 46.1559 16.21Z" fill="#858892"/>
<path d="M35.8229 18.6926C32.8279 18.6926 30.6211 16.4267 30.6211 13.4908C30.6211 10.555 32.8279 8.28906 35.8229 8.28906C37.7538 8.28906 39.4287 9.31365 40.2365 10.8308L38.0494 12.1116C37.6553 11.3037 36.8081 10.7914 35.8032 10.7914C34.286 10.7914 33.1629 11.9145 33.1629 13.4908C33.1629 15.0474 34.286 16.1705 35.8032 16.1705C36.8278 16.1705 37.675 15.678 38.0691 14.8701L40.2759 16.1311C39.4287 17.668 37.7538 18.6926 35.8229 18.6926Z" fill="#858892"/>
<path fill-rule="evenodd" clip-rule="evenodd" d="M8.92926 2.92188C8.07913 2.92188 7.38995 3.61105 7.38995 4.46118V9.26908H2.49342C1.64328 9.26908 0.954102 9.95824 0.954102 10.8084V22.1577C0.954102 23.0079 1.64328 23.6971 2.49342 23.6971H13.708C14.5581 23.6971 15.2473 23.0079 15.2473 22.1577V17.3499H20.1438C20.9939 17.3499 21.6831 16.6607 21.6831 15.8105V4.46118C21.6831 3.61105 20.9939 2.92188 20.1438 2.92188H8.92926ZM15.2473 17.3499V10.8084C15.2473 9.95824 14.5581 9.26908 13.708 9.26908H7.38995V15.8105C7.38995 16.6607 8.07913 17.3499 8.92926 17.3499H15.2473Z" fill="#858892"/>
</g>
<defs>
<clipPath id="clip0_447_5308">
<rect width="116" height="24" fill="white" transform="translate(0.120117 0.453125)"/>
</clipPath>
</defs>
</svg>
