<svg width="42" height="42" viewBox="0 0 42 42" fill="none" xmlns="http://www.w3.org/2000/svg">
<g clip-path="url(#clip0_447_5606)">
<g clip-path="url(#clip1_447_5606)">
<path d="M41.3698 21.1773C41.3698 10.0812 32.3746 1.08594 21.2784 1.08594C10.1822 1.08594 1.18701 10.0812 1.18701 21.1773C1.18701 32.2735 10.1822 41.2687 21.2784 41.2687C32.3746 41.2687 41.3698 32.2735 41.3698 21.1773Z" fill="#5865F2"/>
<path d="M28.6044 14.5931C30.9721 18.0989 32.1414 22.0535 31.7043 26.606C31.7025 26.6253 31.6925 26.643 31.6767 26.6545C29.8838 27.9805 28.1465 28.7852 26.4337 29.3189C26.4203 29.3229 26.4061 29.3227 26.3929 29.3182C26.3797 29.3137 26.3682 29.3051 26.3601 29.2938C25.9644 28.7392 25.6048 28.1547 25.2898 27.5408C25.2718 27.5047 25.2883 27.4611 25.3255 27.4469C25.8965 27.2302 26.4395 26.9705 26.9617 26.663C27.0029 26.6387 27.0055 26.5794 26.9676 26.5509C26.8567 26.468 26.7469 26.3809 26.6418 26.2938C26.6221 26.2777 26.5957 26.2746 26.5734 26.2853C23.1826 27.8622 19.4682 27.8622 16.0372 26.2853C16.0149 26.2753 15.9885 26.2788 15.9694 26.2946C15.8646 26.3816 15.7544 26.468 15.6447 26.5509C15.6066 26.5794 15.6098 26.6387 15.6512 26.663C16.1735 26.9647 16.7165 27.2302 17.2867 27.4479C17.3237 27.4621 17.3412 27.5047 17.3229 27.5408C17.0148 28.1555 16.6552 28.74 16.2522 29.2945C16.2345 29.317 16.2057 29.3273 16.1785 29.3189C14.4738 28.7852 12.7365 27.9805 10.9435 26.6545C10.9286 26.643 10.9179 26.6245 10.9162 26.6052C10.551 22.6673 11.2954 18.68 14.0134 14.5922C14.0198 14.5815 14.0299 14.573 14.0414 14.568C15.3787 13.9499 16.8114 13.4952 18.3087 13.2355C18.336 13.2312 18.3633 13.2439 18.3775 13.2682C18.5625 13.5981 18.7739 14.0212 18.9171 14.3669C20.4954 14.1241 22.0985 14.1241 23.7099 14.3669C23.853 14.0285 24.0571 13.5981 24.2413 13.2682C24.2479 13.2561 24.258 13.2465 24.2704 13.2407C24.2827 13.2348 24.2965 13.2329 24.31 13.2355C25.8082 13.4959 27.2408 13.9507 28.5771 14.568C28.5889 14.573 28.5986 14.5815 28.6044 14.5931ZM19.7194 22.0804C19.7359 20.9162 18.8931 19.9529 17.8352 19.9529C16.7859 19.9529 15.9512 20.9078 15.9512 22.0804C15.9512 23.2527 16.8024 24.2075 17.8352 24.2075C18.8847 24.2075 19.7194 23.2527 19.7194 22.0804ZM26.6855 22.0804C26.7021 20.9162 25.8593 19.9529 24.8016 19.9529C23.752 19.9529 22.9174 20.9078 22.9174 22.0804C22.9174 23.2527 23.7686 24.2075 24.8016 24.2075C25.8593 24.2075 26.6855 23.2527 26.6855 22.0804Z" fill="white"/>
</g>
</g>
<defs>
<clipPath id="clip0_447_5606">
<rect width="41" height="41" fill="white" transform="translate(0.5 0.75)"/>
</clipPath>
<clipPath id="clip1_447_5606">
<rect width="41" height="41" fill="white" transform="translate(0.5 0.75)"/>
</clipPath>
</defs>
</svg>
