<svg width="52" height="52" viewBox="0 0 52 52" fill="none" xmlns="http://www.w3.org/2000/svg">
<g clip-path="url(#clip0_447_5594)">
<g clip-path="url(#clip1_447_5594)">
<path d="M51.1694 25.8157C51.1694 11.8687 39.8632 0.5625 25.9162 0.5625C11.9693 0.5625 0.663086 11.8687 0.663086 25.8157C0.663086 39.7626 11.9693 51.0688 25.9162 51.0688C39.8632 51.0688 51.1694 39.7626 51.1694 25.8157Z" fill="#337FFF"/>
<path d="M32.0955 27.4589L32.8151 22.8867H28.3822V19.9147C28.3822 18.6646 29.0011 17.4429 30.98 17.4429H33.0238V13.5494C31.8336 13.3596 30.631 13.2569 29.4257 13.2422C25.7773 13.2422 23.3953 15.4354 23.3953 19.4004V22.8867H19.3511V27.4589H23.3953V38.5178H28.3822V27.4589H32.0955Z" fill="white"/>
</g>
</g>
<defs>
<clipPath id="clip0_447_5594">
<rect width="52" height="51.03" fill="white" transform="translate(0 0.492188)"/>
</clipPath>
<clipPath id="clip1_447_5594">
<rect width="51.9928" height="51.03" fill="white" transform="translate(0.00341797 0.492188)"/>
</clipPath>
</defs>
</svg>
