<svg width="30" height="31" viewBox="0 0 30 31" fill="none" xmlns="http://www.w3.org/2000/svg">
<g clip-path="url(#clip0_447_5640)">
<g clip-path="url(#clip1_447_5640)">
<g clip-path="url(#clip2_447_5640)">
<path d="M29.238 14.9469C29.238 7.20108 22.9588 0.921875 15.213 0.921875C7.46719 0.921875 1.18799 7.20108 1.18799 14.9469V15.8819C1.18799 23.6277 7.46719 29.9069 15.213 29.9069C22.9588 29.9069 29.238 23.6277 29.238 15.8819V14.9469Z" fill="#F1F1F1"/>
<path d="M23.4439 15.9551C23.4439 15.3582 23.388 14.7418 23.2948 14.1641H15.2246V17.5729H19.8468C19.6604 18.6707 19.0454 19.6336 18.1321 20.25L20.8905 22.4648C22.512 20.9048 23.4439 18.6321 23.4439 15.9551Z" fill="#4280EF"/>
<path d="M15.2265 24.5869C17.5377 24.5869 19.476 23.7972 20.8925 22.4491L18.134 20.2535C17.3699 20.7928 16.3821 21.101 15.2265 21.101C12.9899 21.101 11.1075 19.5409 10.4179 17.4609L7.58496 19.7143C9.03872 22.6995 11.9835 24.5869 15.2265 24.5869Z" fill="#34A353"/>
<path d="M10.4178 17.4434C10.0637 16.3456 10.0637 15.1516 10.4178 14.0538L7.58487 11.7812C6.3734 14.2849 6.3734 17.2316 7.58487 19.716L10.4178 17.4434Z" fill="#F6B704"/>
<path d="M15.2265 10.4118C16.438 10.3925 17.6308 10.874 18.5068 11.7406L20.9484 9.19843C19.4014 7.69621 17.3512 6.88733 15.2265 6.90659C11.9835 6.90659 9.03872 8.79399 7.58496 11.7791L10.4179 14.0518C11.1076 11.9525 12.99 10.4118 15.2265 10.4118Z" fill="#E54335"/>
</g>
</g>
</g>
<defs>
<clipPath id="clip0_447_5640">
<rect width="29" height="29.92" fill="white" transform="translate(0.5 0.539062)"/>
</clipPath>
<clipPath id="clip1_447_5640">
<rect width="29" height="29.92" fill="white" transform="translate(0.5 0.539062)"/>
</clipPath>
<clipPath id="clip2_447_5640">
<rect width="28.985" height="29.92" fill="white" transform="translate(0.507324 0.539062)"/>
</clipPath>
</defs>
</svg>
