<svg width="40" height="39" viewBox="0 0 40 39" fill="none" xmlns="http://www.w3.org/2000/svg">
<g clip-path="url(#clip0_447_5601)">
<g clip-path="url(#clip1_447_5601)">
<path d="M38.8674 19.641C38.8674 9.2121 30.4131 0.757812 19.9843 0.757812C9.55536 0.757812 1.10107 9.2121 1.10107 19.641C1.10107 30.0699 9.55536 38.5242 19.9843 38.5242C30.4131 38.5242 38.8674 30.0699 38.8674 19.641Z" fill="#006699"/>
<path d="M15.6399 27.2993V17.0975H12.2519V27.2993H15.6399ZM13.9466 15.7049C15.1278 15.7049 15.8632 14.9215 15.8632 13.9425C15.841 12.9411 15.1278 12.1797 13.969 12.1797C12.8095 12.1797 12.0522 12.9411 12.0522 13.9424C12.0522 14.9214 12.7873 15.7048 13.9244 15.7048L13.9466 15.7049ZM17.5151 27.2993H20.9028V21.6028C20.9028 21.2983 20.9248 20.993 21.0143 20.7755C21.2592 20.166 21.8166 19.5352 22.7527 19.5352C23.9783 19.5352 24.4689 20.4706 24.4689 21.8422V27.2993H27.8564V21.4499C27.8564 18.3165 26.1853 16.8584 23.9564 16.8584C22.129 16.8584 21.3264 17.8806 20.8804 18.5769H20.9031V17.0979H17.5153C17.5595 18.0549 17.5151 27.2993 17.5151 27.2993Z" fill="white"/>
</g>
</g>
<defs>
<clipPath id="clip0_447_5601">
<rect width="39" height="39" fill="white" transform="translate(0.200195)"/>
</clipPath>
<clipPath id="clip1_447_5601">
<rect width="39" height="39" fill="white" transform="translate(0.200195)"/>
</clipPath>
</defs>
</svg>
