<svg width="34" height="34" viewBox="0 0 34 34" fill="none" xmlns="http://www.w3.org/2000/svg">
<rect width="34" height="34" rx="17" fill="url(#paint0_linear_455_24737)"/>
<g filter="url(#filter0_i_455_24737)">
<rect x="1" y="1" width="32" height="32" rx="16" fill="#070719"/>
<path d="M10.3921 11.7372C10.3921 11.3079 10.5368 10.9579 10.8261 10.6872C11.1154 10.4165 11.5028 10.2812 11.9881 10.2812C12.4734 10.2812 12.8608 10.4189 13.1501 10.6942C13.4394 10.9695 13.5841 11.3312 13.5841 11.7792C13.5841 12.1805 13.4348 12.5189 13.1361 12.7942C12.8374 13.0695 12.4501 13.2072 11.9741 13.2072H11.9601C11.4841 13.2072 11.1038 13.0672 10.8191 12.7872C10.5344 12.5072 10.3921 12.1572 10.3921 11.7372ZM10.5601 22.8672V14.3692H13.3881V22.8672H10.5601ZM14.9561 22.8672H17.7981V18.1212C17.7981 17.8225 17.8308 17.5939 17.8961 17.4352C18.0081 17.1459 18.1901 16.9009 18.4421 16.7002C18.6941 16.4995 18.9974 16.3992 19.3521 16.3992C20.3041 16.3992 20.7801 17.0432 20.7801 18.3312V22.8672H23.6081V17.9952C23.6081 16.7259 23.3118 15.7715 22.7191 15.1322C22.1264 14.4929 21.3401 14.1732 20.3601 14.1732C19.2494 14.1732 18.3954 14.6399 17.7981 15.5732V15.6012H17.7841L17.7981 15.5732V14.3692H14.9561C14.9748 14.7239 14.9841 15.5685 14.9841 16.9032C14.9841 17.6219 14.9794 19.0359 14.9701 21.1452L14.9561 22.8672Z" fill="white"/>
</g>
<defs>
<filter id="filter0_i_455_24737" x="1" y="-1" width="32" height="34" filterUnits="userSpaceOnUse" color-interpolation-filters="sRGB">
<feFlood flood-opacity="0" result="BackgroundImageFix"/>
<feBlend mode="normal" in="SourceGraphic" in2="BackgroundImageFix" result="shape"/>
<feColorMatrix in="SourceAlpha" type="matrix" values="0 0 0 0 0 0 0 0 0 0 0 0 0 0 0 0 0 0 127 0" result="hardAlpha"/>
<feOffset dy="-2"/>
<feGaussianBlur stdDeviation="6"/>
<feComposite in2="hardAlpha" operator="arithmetic" k2="-1" k3="1"/>
<feColorMatrix type="matrix" values="0 0 0 0 0.239216 0 0 0 0 0.588235 0 0 0 0 1 0 0 0 0.4 0"/>
<feBlend mode="normal" in2="shape" result="effect1_innerShadow_455_24737"/>
</filter>
<linearGradient id="paint0_linear_455_24737" x1="0" y1="17" x2="34" y2="17" gradientUnits="userSpaceOnUse">
<stop stop-color="#3A5AFF"/>
<stop offset="1" stop-color="#5EBBFF"/>
</linearGradient>
</defs>
</svg>
