<svg width="52" height="52" viewBox="0 0 52 52" fill="none" xmlns="http://www.w3.org/2000/svg">
<g clip-path="url(#clip0_447_5632)">
<g clip-path="url(#clip1_447_5632)">
<g clip-path="url(#clip2_447_5632)">
<path d="M26.4906 0.296875H25.5094C11.421 0.296875 0 11.7178 0 25.8063C0 39.8948 11.421 51.3157 25.5094 51.3157H26.4906C40.579 51.3157 52 39.8948 52 25.8063C52 11.7178 40.579 0.296875 26.4906 0.296875Z" fill="url(#paint0_radial_447_5632)"/>
<path d="M26.0699 13.1094C18.7432 13.1094 13.062 18.3771 13.062 25.4889C13.062 29.2091 14.6164 32.4252 17.1465 34.6459C17.3579 34.831 17.4879 35.0925 17.4945 35.3733L17.566 37.645C17.5712 37.8121 17.6182 37.9755 17.7028 38.1207C17.7874 38.2658 17.907 38.3883 18.0513 38.4775C18.1954 38.5667 18.3597 38.6198 18.5298 38.6321C18.6997 38.6443 18.8701 38.6155 19.0261 38.548L21.6082 37.4312C21.8261 37.3355 22.0732 37.3196 22.3041 37.3802C23.4911 37.6993 24.7528 37.8716 26.0699 37.8716C33.3965 37.8716 39.0776 32.6039 39.0776 25.492C39.0776 18.3802 33.3965 13.1094 26.0699 13.1094Z" fill="white"/>
<path d="M18.259 29.1127L22.08 23.1655C22.2238 22.9416 22.4132 22.7493 22.6365 22.6008C22.8598 22.4525 23.1121 22.351 23.3773 22.303C23.6426 22.2551 23.915 22.2615 24.1776 22.3222C24.4401 22.3827 24.6871 22.496 24.9027 22.655L27.9433 24.8916C28.0791 24.9912 28.2442 25.0449 28.4137 25.0443C28.5833 25.0437 28.7481 24.989 28.8831 24.8883L32.9871 21.8318C33.5334 21.4234 34.2488 22.0679 33.8846 22.639L30.0603 28.5831C29.9165 28.807 29.7271 28.9992 29.5038 29.1476C29.2804 29.2961 29.0283 29.3975 28.763 29.4455C28.4978 29.4935 28.2252 29.4869 27.9627 29.4264C27.7001 29.3658 27.4533 29.2525 27.2376 29.0936L24.197 26.857C24.0613 26.7573 23.8961 26.7036 23.7266 26.7042C23.557 26.7048 23.3923 26.7595 23.2572 26.8601L19.1533 29.9167C18.6069 30.3252 17.8915 29.6838 18.259 29.1127Z" fill="url(#paint1_radial_447_5632)"/>
</g>
</g>
</g>
<defs>
<radialGradient id="paint0_radial_447_5632" cx="0" cy="0" r="1" gradientUnits="userSpaceOnUse" gradientTransform="translate(8.71 51.3144) scale(57.2 56.1192)">
<stop stop-color="#0099FF"/>
<stop offset="0.6" stop-color="#A033FF"/>
<stop offset="0.9" stop-color="#FF5280"/>
<stop offset="1" stop-color="#FF7061"/>
</radialGradient>
<radialGradient id="paint1_radial_447_5632" cx="0" cy="0" r="1" gradientUnits="userSpaceOnUse" gradientTransform="translate(17.4199 38.6366) scale(28.6172 28.0773)">
<stop stop-color="#0099FF"/>
<stop offset="0.6" stop-color="#A033FF"/>
<stop offset="0.9" stop-color="#FF5280"/>
<stop offset="1" stop-color="#FF7061"/>
</radialGradient>
<clipPath id="clip0_447_5632">
<rect width="52" height="52" fill="white"/>
</clipPath>
<clipPath id="clip1_447_5632">
<rect width="52" height="52" fill="white"/>
</clipPath>
<clipPath id="clip2_447_5632">
<rect width="52" height="52" fill="white"/>
</clipPath>
</defs>
</svg>
