<svg width="56" height="70" viewBox="0 0 56 70" fill="none" xmlns="http://www.w3.org/2000/svg">
<path d="M26.6391 39.5174C26.8273 39.5946 27.0278 39.6364 27.2284 39.6364C27.6372 39.6346 28.029 39.472 28.3192 39.1835L31.4049 36.0926C31.6942 35.8029 31.8567 35.4098 31.8567 35C31.8567 34.5902 31.6942 34.1971 31.4049 33.9074C31.1156 33.6176 30.7232 33.4548 30.3141 33.4548C29.905 33.4548 29.5126 33.6176 29.2233 33.9074L28.7713 34.3602V28.8182C28.7713 27.9666 29.464 27.2727 30.3141 27.2727H50.3711C50.7803 27.2727 51.1728 27.1099 51.4621 26.8201C51.7514 26.5302 51.914 26.1372 51.914 25.7273C51.914 25.3174 51.7514 24.9243 51.4621 24.6345C51.1728 24.3446 50.7803 24.1818 50.3711 24.1818H30.3141C27.7622 24.1818 25.6856 26.262 25.6856 28.8182V34.3602L25.2335 33.9074C24.9442 33.6176 24.5519 33.4548 24.1427 33.4548C23.7336 33.4548 23.3412 33.6176 23.0519 33.9074C22.7626 34.1971 22.6001 34.5902 22.6001 35C22.6001 35.4098 22.7626 35.8029 23.0519 36.0926L26.1376 39.1835C26.2812 39.3268 26.4516 39.4402 26.6391 39.5174ZM54.5476 33.9074L51.4619 30.8165C51.1724 30.5271 50.7801 30.3646 50.3711 30.3646C49.9622 30.3646 49.5699 30.5271 49.2803 30.8165L46.1947 33.9074C46.0514 34.0508 45.9378 34.2212 45.8603 34.4087C45.7827 34.5961 45.7428 34.7971 45.7428 35C45.7428 35.2029 45.7827 35.4039 45.8603 35.5913C45.9378 35.7788 46.0514 35.9492 46.1947 36.0926C46.3379 36.2361 46.508 36.3499 46.6951 36.4276C46.8823 36.5053 47.0829 36.5452 47.2854 36.5452C47.488 36.5452 47.6886 36.5053 47.8758 36.4276C48.0629 36.3499 48.233 36.2361 48.3762 36.0926L48.8283 35.6398V41.1818C48.8283 42.0334 48.1356 42.7273 47.2854 42.7273H27.2284C26.8192 42.7273 26.4268 42.8901 26.1375 43.1799C25.8481 43.4698 25.6856 43.8628 25.6856 44.2727C25.6856 44.6826 25.8481 45.0757 26.1375 45.3655C26.4268 45.6554 26.8192 45.8182 27.2284 45.8182H47.2854C49.8373 45.8182 51.914 43.738 51.914 41.1818V35.6398L52.366 36.0926C52.509 36.2366 52.679 36.3509 52.8662 36.4289C53.0534 36.5069 53.2541 36.5471 53.4568 36.5471C53.6596 36.5471 53.8603 36.5069 54.0475 36.4289C54.2347 36.3509 54.4047 36.2366 54.5476 36.0926C54.691 35.9492 54.8048 35.7789 54.8824 35.5914C54.96 35.4039 55 35.203 55 35C55 34.797 54.96 34.5961 54.8824 34.4086C54.8048 34.2211 54.691 34.0508 54.5476 33.9074Z" fill="url(#paint0_linear_463_28853)"/>
<path d="M21.057 63.5909C22.3352 63.5909 23.3713 62.553 23.3713 61.2727C23.3713 59.9924 22.3352 58.9545 21.057 58.9545C19.7789 58.9545 18.7428 59.9924 18.7428 61.2727C18.7428 62.553 19.7789 63.5909 21.057 63.5909Z" fill="url(#paint1_linear_463_28853)"/>
<path d="M24.1427 7.18182H17.9713C17.5621 7.18182 17.1697 7.34464 16.8804 7.63447C16.591 7.9243 16.4285 8.31739 16.4285 8.72727C16.4285 9.13715 16.591 9.53024 16.8804 9.82007C17.1697 10.1099 17.5621 10.2727 17.9713 10.2727H24.1427C24.5519 10.2727 24.9443 10.1099 25.2337 9.82007C25.523 9.53024 25.6856 9.13715 25.6856 8.72727C25.6856 8.31739 25.523 7.9243 25.2337 7.63447C24.9443 7.34464 24.5519 7.18182 24.1427 7.18182Z" fill="url(#paint2_linear_463_28853)"/>
<path d="M39.5712 21.0909C39.9804 21.0909 40.3728 20.9281 40.6622 20.6383C40.9515 20.3484 41.1141 19.9553 41.1141 19.5455V5.63636C41.1141 3.08018 39.0374 1 36.4855 1H5.62854C3.07667 1 1 3.08018 1 5.63636V64.3636C1 66.9198 3.07667 69 5.62854 69H36.4855C39.0374 69 41.1141 66.9198 41.1141 64.3636V50.4545C41.1141 50.0447 40.9515 49.6516 40.6622 49.3617C40.3728 49.0719 39.9804 48.9091 39.5712 48.9091C39.162 48.9091 38.7696 49.0719 38.4802 49.3617C38.1909 49.6516 38.0284 50.0447 38.0284 50.4545V53.5455H4.0857V16.4545H38.0284V19.5455C38.0284 19.9553 38.1909 20.3484 38.4802 20.6383C38.7696 20.9281 39.162 21.0909 39.5712 21.0909ZM4.0857 56.6364H38.0284V64.3636C38.0284 65.2152 37.3356 65.9091 36.4855 65.9091H5.62854C4.77844 65.9091 4.0857 65.2152 4.0857 64.3636V56.6364ZM4.0857 13.3636V5.63636C4.0857 4.78482 4.77844 4.09091 5.62854 4.09091H36.4855C37.3356 4.09091 38.0284 4.78482 38.0284 5.63636V13.3636H4.0857Z" fill="url(#paint3_linear_463_28853)"/>
<path d="M26.6391 39.5174C26.8273 39.5946 27.0278 39.6364 27.2284 39.6364C27.6372 39.6346 28.029 39.472 28.3192 39.1835L31.4049 36.0926C31.6942 35.8029 31.8567 35.4098 31.8567 35C31.8567 34.5902 31.6942 34.1971 31.4049 33.9074C31.1156 33.6176 30.7232 33.4548 30.3141 33.4548C29.905 33.4548 29.5126 33.6176 29.2233 33.9074L28.7713 34.3602V28.8182C28.7713 27.9666 29.464 27.2727 30.3141 27.2727H50.3711C50.7803 27.2727 51.1728 27.1099 51.4621 26.8201C51.7514 26.5302 51.914 26.1372 51.914 25.7273C51.914 25.3174 51.7514 24.9243 51.4621 24.6345C51.1728 24.3446 50.7803 24.1818 50.3711 24.1818H30.3141C27.7622 24.1818 25.6856 26.262 25.6856 28.8182V34.3602L25.2335 33.9074C24.9442 33.6176 24.5519 33.4548 24.1427 33.4548C23.7336 33.4548 23.3412 33.6176 23.0519 33.9074C22.7626 34.1971 22.6001 34.5902 22.6001 35C22.6001 35.4098 22.7626 35.8029 23.0519 36.0926L26.1376 39.1835C26.2812 39.3268 26.4516 39.4402 26.6391 39.5174ZM54.5476 33.9074L51.4619 30.8165C51.1724 30.5271 50.7801 30.3646 50.3711 30.3646C49.9622 30.3646 49.5699 30.5271 49.2803 30.8165L46.1947 33.9074C46.0514 34.0508 45.9378 34.2212 45.8603 34.4087C45.7827 34.5961 45.7428 34.7971 45.7428 35C45.7428 35.2029 45.7827 35.4039 45.8603 35.5913C45.9378 35.7788 46.0514 35.9492 46.1947 36.0926C46.3379 36.2361 46.508 36.3499 46.6951 36.4276C46.8823 36.5053 47.0829 36.5452 47.2854 36.5452C47.488 36.5452 47.6886 36.5053 47.8758 36.4276C48.0629 36.3499 48.233 36.2361 48.3762 36.0926L48.8283 35.6398V41.1818C48.8283 42.0334 48.1356 42.7273 47.2854 42.7273H27.2284C26.8192 42.7273 26.4268 42.8901 26.1375 43.1799C25.8481 43.4698 25.6856 43.8628 25.6856 44.2727C25.6856 44.6826 25.8481 45.0757 26.1375 45.3655C26.4268 45.6554 26.8192 45.8182 27.2284 45.8182H47.2854C49.8373 45.8182 51.914 43.738 51.914 41.1818V35.6398L52.366 36.0926C52.509 36.2366 52.679 36.3509 52.8662 36.4289C53.0534 36.5069 53.2541 36.5471 53.4568 36.5471C53.6596 36.5471 53.8603 36.5069 54.0475 36.4289C54.2347 36.3509 54.4047 36.2366 54.5476 36.0926C54.691 35.9492 54.8048 35.7789 54.8824 35.5914C54.96 35.4039 55 35.203 55 35C55 34.797 54.96 34.5961 54.8824 34.4086C54.8048 34.2211 54.691 34.0508 54.5476 33.9074Z" stroke="url(#paint4_linear_463_28853)"/>
<path d="M21.057 63.5909C22.3352 63.5909 23.3713 62.553 23.3713 61.2727C23.3713 59.9924 22.3352 58.9545 21.057 58.9545C19.7789 58.9545 18.7428 59.9924 18.7428 61.2727C18.7428 62.553 19.7789 63.5909 21.057 63.5909Z" stroke="url(#paint5_linear_463_28853)"/>
<path d="M24.1427 7.18182H17.9713C17.5621 7.18182 17.1697 7.34464 16.8804 7.63447C16.591 7.9243 16.4285 8.31739 16.4285 8.72727C16.4285 9.13715 16.591 9.53024 16.8804 9.82007C17.1697 10.1099 17.5621 10.2727 17.9713 10.2727H24.1427C24.5519 10.2727 24.9443 10.1099 25.2337 9.82007C25.523 9.53024 25.6856 9.13715 25.6856 8.72727C25.6856 8.31739 25.523 7.9243 25.2337 7.63447C24.9443 7.34464 24.5519 7.18182 24.1427 7.18182Z" stroke="url(#paint6_linear_463_28853)"/>
<path d="M39.5712 21.0909C39.9804 21.0909 40.3728 20.9281 40.6622 20.6383C40.9515 20.3484 41.1141 19.9553 41.1141 19.5455V5.63636C41.1141 3.08018 39.0374 1 36.4855 1H5.62854C3.07667 1 1 3.08018 1 5.63636V64.3636C1 66.9198 3.07667 69 5.62854 69H36.4855C39.0374 69 41.1141 66.9198 41.1141 64.3636V50.4545C41.1141 50.0447 40.9515 49.6516 40.6622 49.3617C40.3728 49.0719 39.9804 48.9091 39.5712 48.9091C39.162 48.9091 38.7696 49.0719 38.4802 49.3617C38.1909 49.6516 38.0284 50.0447 38.0284 50.4545V53.5455H4.0857V16.4545H38.0284V19.5455C38.0284 19.9553 38.1909 20.3484 38.4802 20.6383C38.7696 20.9281 39.162 21.0909 39.5712 21.0909ZM4.0857 56.6364H38.0284V64.3636C38.0284 65.2152 37.3356 65.9091 36.4855 65.9091H5.62854C4.77844 65.9091 4.0857 65.2152 4.0857 64.3636V56.6364ZM4.0857 13.3636V5.63636C4.0857 4.78482 4.77844 4.09091 5.62854 4.09091H36.4855C37.3356 4.09091 38.0284 4.78482 38.0284 5.63636V13.3636H4.0857Z" stroke="url(#paint7_linear_463_28853)"/>
<defs>
<linearGradient id="paint0_linear_463_28853" x1="31.4941" y1="69" x2="31.4941" y2="5.04762" gradientUnits="userSpaceOnUse">
<stop stop-color="#0788AE"/>
<stop offset="1" stop-color="#22AAD2"/>
</linearGradient>
<linearGradient id="paint1_linear_463_28853" x1="31.4941" y1="69" x2="31.4941" y2="5.04762" gradientUnits="userSpaceOnUse">
<stop stop-color="#0788AE"/>
<stop offset="1" stop-color="#22AAD2"/>
</linearGradient>
<linearGradient id="paint2_linear_463_28853" x1="31.4941" y1="69" x2="31.4941" y2="5.04762" gradientUnits="userSpaceOnUse">
<stop stop-color="#0788AE"/>
<stop offset="1" stop-color="#22AAD2"/>
</linearGradient>
<linearGradient id="paint3_linear_463_28853" x1="31.4941" y1="69" x2="31.4941" y2="5.04762" gradientUnits="userSpaceOnUse">
<stop stop-color="#0788AE"/>
<stop offset="1" stop-color="#22AAD2"/>
</linearGradient>
<linearGradient id="paint4_linear_463_28853" x1="31.4941" y1="69" x2="31.4941" y2="5.04762" gradientUnits="userSpaceOnUse">
<stop stop-color="#0788AE"/>
<stop offset="1" stop-color="#22AAD2"/>
</linearGradient>
<linearGradient id="paint5_linear_463_28853" x1="31.4941" y1="69" x2="31.4941" y2="5.04762" gradientUnits="userSpaceOnUse">
<stop stop-color="#0788AE"/>
<stop offset="1" stop-color="#22AAD2"/>
</linearGradient>
<linearGradient id="paint6_linear_463_28853" x1="31.4941" y1="69" x2="31.4941" y2="5.04762" gradientUnits="userSpaceOnUse">
<stop stop-color="#0788AE"/>
<stop offset="1" stop-color="#22AAD2"/>
</linearGradient>
<linearGradient id="paint7_linear_463_28853" x1="31.4941" y1="69" x2="31.4941" y2="5.04762" gradientUnits="userSpaceOnUse">
<stop stop-color="#0788AE"/>
<stop offset="1" stop-color="#22AAD2"/>
</linearGradient>
</defs>
</svg>
