<svg width="40" height="39" viewBox="0 0 40 39" fill="none" xmlns="http://www.w3.org/2000/svg">
<g clip-path="url(#clip0_447_5637)">
<g clip-path="url(#clip1_447_5637)">
<path d="M39.5502 19.6416C39.5502 9.1347 31.0327 0.617188 20.5259 0.617188C10.019 0.617188 1.50146 9.1347 1.50146 19.6416C1.50146 30.1485 10.019 38.666 20.5259 38.666C31.0327 38.666 39.5502 30.1485 39.5502 19.6416Z" fill="#FF0000"/>
<path d="M19.5951 10.2355C16.5069 10.5888 13.4296 13.1487 13.3026 16.8056C13.2228 19.0383 13.8415 20.7134 15.9154 21.1838C16.8154 19.557 15.6251 19.1982 15.44 18.0215C14.6798 13.199 20.8689 9.91022 24.1077 13.2771C26.3486 15.6083 24.8734 22.7807 21.259 22.0352C17.797 21.3231 22.9537 15.6139 20.1903 14.4929C17.944 13.5819 16.7501 17.2797 17.8152 19.1164C17.191 22.275 15.8464 25.2515 16.3908 29.2132C18.1563 27.9006 18.7514 25.3871 19.2395 22.7659C20.1267 23.3179 20.6004 23.8925 21.7326 23.9817C25.9076 24.3126 28.2392 19.7114 27.6694 15.4671C27.1632 11.7042 23.4981 9.78942 19.5951 10.2355Z" fill="white"/>
</g>
</g>
<defs>
<clipPath id="clip0_447_5637">
<rect width="39" height="39" fill="white" transform="translate(0.939941)"/>
</clipPath>
<clipPath id="clip1_447_5637">
<rect width="39" height="39" fill="white" transform="translate(0.939941)"/>
</clipPath>
</defs>
</svg>
