<svg width="34" height="34" viewBox="0 0 34 34" fill="none" xmlns="http://www.w3.org/2000/svg">
<rect x="-0.00012207" width="34" height="34" rx="17" fill="url(#paint0_linear_470_33151)"/>
<g filter="url(#filter0_i_470_33151)">
<rect x="0.999878" y="1" width="32" height="32" rx="16" fill="#070719"/>
<path d="M14.4519 10.0451C13.7426 10.0451 13.0846 10.2225 12.4779 10.5771C11.8899 10.9225 11.4232 11.3891 11.0779 11.9771C10.7232 12.5838 10.5459 13.2418 10.5459 13.9511V19.0471C10.5459 19.7565 10.7232 20.4145 11.0779 21.0211C11.4232 21.6091 11.8899 22.0758 12.4779 22.4211C13.0846 22.7758 13.7426 22.9531 14.4519 22.9531H19.5479C20.2572 22.9531 20.9152 22.7758 21.5219 22.4211C22.1099 22.0758 22.5766 21.6091 22.9219 21.0211C23.2766 20.4145 23.4539 19.7565 23.4539 19.0471V13.9511C23.4539 13.2418 23.2766 12.5838 22.9219 11.9771C22.5766 11.3891 22.1099 10.9225 21.5219 10.5771C20.9152 10.2225 20.2572 10.0451 19.5479 10.0451H14.4519ZM20.4019 12.4251C20.5886 12.4251 20.7472 12.4905 20.8779 12.6211C21.0086 12.7518 21.0739 12.9105 21.0739 13.0971C21.0739 13.2838 21.0086 13.4448 20.8779 13.5801C20.7472 13.7155 20.5886 13.7831 20.4019 13.7831C20.2152 13.7831 20.0542 13.7155 19.9189 13.5801C19.7836 13.4448 19.7159 13.2838 19.7159 13.0971C19.7159 12.9105 19.7836 12.7518 19.9189 12.6211C20.0542 12.4905 20.2152 12.4251 20.4019 12.4251ZM16.9999 13.0971C17.6159 13.0971 18.1852 13.2488 18.7079 13.5521C19.2306 13.8555 19.6436 14.2685 19.9469 14.7911C20.2502 15.3138 20.4019 15.8831 20.4019 16.4991C20.4019 17.1151 20.2502 17.6821 19.9469 18.2001C19.6436 18.7181 19.2306 19.1288 18.7079 19.4321C18.1852 19.7355 17.6159 19.8871 16.9999 19.8871C16.3839 19.8871 15.8169 19.7355 15.2989 19.4321C14.7809 19.1288 14.3702 18.7181 14.0669 18.2001C13.7636 17.6821 13.6119 17.1151 13.6119 16.4991C13.6119 15.8831 13.7636 15.3138 14.0669 14.7911C14.3702 14.2685 14.7809 13.8555 15.2989 13.5521C15.8169 13.2488 16.3839 13.0971 16.9999 13.0971ZM16.9999 14.1191C16.7106 14.1191 16.4072 14.1798 16.0899 14.3011C15.7819 14.4411 15.5229 14.6161 15.3129 14.8261C15.1029 15.0361 14.9326 15.2905 14.8019 15.5891C14.6806 15.9065 14.6199 16.2098 14.6199 16.4991C14.6199 16.7885 14.6806 17.0918 14.8019 17.4091C14.9419 17.7171 15.1146 17.9738 15.3199 18.1791C15.5252 18.3845 15.7819 18.5571 16.0899 18.6971C16.4072 18.8185 16.7106 18.8791 16.9999 18.8791C17.2892 18.8791 17.5926 18.8185 17.9099 18.6971C18.2086 18.5665 18.4629 18.3961 18.6729 18.1861C18.8829 17.9761 19.0579 17.7171 19.1979 17.4091C19.3192 17.0918 19.3799 16.7885 19.3799 16.4991C19.3799 16.2098 19.3192 15.9065 19.1979 15.5891C19.0766 15.2905 18.9062 15.0315 18.6869 14.8121C18.4676 14.5928 18.2086 14.4225 17.9099 14.3011C17.5926 14.1798 17.2892 14.1191 16.9999 14.1191Z" fill="white"/>
</g>
<defs>
<filter id="filter0_i_470_33151" x="0.999878" y="-1" width="32" height="34" filterUnits="userSpaceOnUse" color-interpolation-filters="sRGB">
<feFlood flood-opacity="0" result="BackgroundImageFix"/>
<feBlend mode="normal" in="SourceGraphic" in2="BackgroundImageFix" result="shape"/>
<feColorMatrix in="SourceAlpha" type="matrix" values="0 0 0 0 0 0 0 0 0 0 0 0 0 0 0 0 0 0 127 0" result="hardAlpha"/>
<feOffset dy="-2"/>
<feGaussianBlur stdDeviation="6"/>
<feComposite in2="hardAlpha" operator="arithmetic" k2="-1" k3="1"/>
<feColorMatrix type="matrix" values="0 0 0 0 0.239216 0 0 0 0 0.588235 0 0 0 0 1 0 0 0 0.4 0"/>
<feBlend mode="normal" in2="shape" result="effect1_innerShadow_470_33151"/>
</filter>
<linearGradient id="paint0_linear_470_33151" x1="-0.00012207" y1="17" x2="33.9999" y2="17" gradientUnits="userSpaceOnUse">
<stop stop-color="#3A5AFF"/>
<stop offset="1" stop-color="#5EBBFF"/>
</linearGradient>
</defs>
</svg>
