<svg width="34" height="34" viewBox="0 0 34 34" fill="none" xmlns="http://www.w3.org/2000/svg">
<rect x="-0.00012207" width="34" height="34" rx="17" fill="url(#paint0_linear_470_33152)"/>
<g filter="url(#filter0_i_470_33152)">
<rect x="0.999878" y="1" width="32" height="32" rx="16" fill="#070719"/>
<path d="M10.3918 11.7372C10.3918 11.3079 10.5365 10.9579 10.8258 10.6872C11.1152 10.4165 11.5025 10.2812 11.9878 10.2812C12.4732 10.2812 12.8605 10.4189 13.1498 10.6942C13.4392 10.9695 13.5838 11.3312 13.5838 11.7792C13.5838 12.1805 13.4345 12.5189 13.1358 12.7942C12.8372 13.0695 12.4498 13.2072 11.9738 13.2072H11.9598C11.4838 13.2072 11.1035 13.0672 10.8188 12.7872C10.5342 12.5072 10.3918 12.1572 10.3918 11.7372ZM10.5598 22.8672V14.3692H13.3878V22.8672H10.5598ZM14.9558 22.8672H17.7978V18.1212C17.7978 17.8225 17.8305 17.5939 17.8958 17.4352C18.0078 17.1459 18.1898 16.9009 18.4418 16.7002C18.6938 16.4995 18.9972 16.3992 19.3518 16.3992C20.3038 16.3992 20.7798 17.0432 20.7798 18.3312V22.8672H23.6078V17.9952C23.6078 16.7259 23.3115 15.7715 22.7188 15.1322C22.1262 14.4929 21.3398 14.1732 20.3598 14.1732C19.2492 14.1732 18.3952 14.6399 17.7978 15.5732V15.6012H17.7838L17.7978 15.5732V14.3692H14.9558C14.9745 14.7239 14.9838 15.5685 14.9838 16.9032C14.9838 17.6219 14.9792 19.0359 14.9698 21.1452L14.9558 22.8672Z" fill="white"/>
</g>
<defs>
<filter id="filter0_i_470_33152" x="0.999878" y="-1" width="32" height="34" filterUnits="userSpaceOnUse" color-interpolation-filters="sRGB">
<feFlood flood-opacity="0" result="BackgroundImageFix"/>
<feBlend mode="normal" in="SourceGraphic" in2="BackgroundImageFix" result="shape"/>
<feColorMatrix in="SourceAlpha" type="matrix" values="0 0 0 0 0 0 0 0 0 0 0 0 0 0 0 0 0 0 127 0" result="hardAlpha"/>
<feOffset dy="-2"/>
<feGaussianBlur stdDeviation="6"/>
<feComposite in2="hardAlpha" operator="arithmetic" k2="-1" k3="1"/>
<feColorMatrix type="matrix" values="0 0 0 0 0.239216 0 0 0 0 0.588235 0 0 0 0 1 0 0 0 0.4 0"/>
<feBlend mode="normal" in2="shape" result="effect1_innerShadow_470_33152"/>
</filter>
<linearGradient id="paint0_linear_470_33152" x1="-0.00012207" y1="17" x2="33.9999" y2="17" gradientUnits="userSpaceOnUse">
<stop stop-color="#3A5AFF"/>
<stop offset="1" stop-color="#5EBBFF"/>
</linearGradient>
</defs>
</svg>
