<svg width="34" height="34" viewBox="0 0 34 34" fill="none" xmlns="http://www.w3.org/2000/svg">
<rect x="-0.00012207" width="34" height="34" rx="17" fill="url(#paint0_linear_470_33150)"/>
<g filter="url(#filter0_i_470_33150)">
<rect x="0.999878" y="1" width="32" height="32" rx="16" fill="#070719"/>
<path d="M19.3519 11.0578H20.0099L20.2479 11.0998L20.3459 11.1278C20.5045 11.1651 20.6165 11.1978 20.6819 11.2258C20.8219 11.2818 20.9525 11.3401 21.0739 11.4008C21.1952 11.4615 21.3025 11.5291 21.3959 11.6038C21.4612 11.6505 21.5499 11.7205 21.6619 11.8138C21.7365 11.8885 21.8579 11.9118 22.0259 11.8838L22.5579 11.7298L22.6839 11.6878C22.8799 11.6131 23.0245 11.5525 23.1179 11.5058C23.3045 11.4218 23.4165 11.3658 23.4539 11.3378L23.5239 11.3098V11.2958H23.5379L23.5519 11.2818H23.5659L23.5939 11.2538H23.6079V11.2958L23.5939 11.3098V11.3378H23.5799V11.3518L23.5659 11.3798C23.5659 11.3985 23.5635 11.4148 23.5589 11.4288C23.5542 11.4428 23.5169 11.5198 23.4469 11.6598C23.3769 11.7998 23.2812 11.9538 23.1599 12.1218C23.0852 12.2151 22.9825 12.3271 22.8519 12.4578C22.7865 12.5045 22.7282 12.5535 22.6769 12.6048C22.6255 12.6561 22.5859 12.6865 22.5579 12.6958L22.4879 12.7518H22.4739V12.7658H22.4599L22.4459 12.7798H22.4319V12.7938H22.4179V12.8078H22.4039H22.4739L22.8239 12.7238C23.0665 12.6771 23.2905 12.6211 23.4959 12.5558L23.8459 12.4438L23.9019 12.4158H23.9159L23.9299 12.4018H23.9439L23.9719 12.3878H23.9999V12.4158H23.9859V12.4298H23.9719V12.4438H23.9579V12.4578H23.9439V12.4718C23.9439 12.4811 23.8879 12.5558 23.7759 12.6958L23.6919 12.8078C23.6452 12.8731 23.6172 12.9058 23.6079 12.9058C23.5985 12.9058 23.5939 12.9105 23.5939 12.9198L23.5799 12.9338C23.5612 12.9618 23.4679 13.0551 23.2999 13.2138C23.1879 13.3351 23.0292 13.4798 22.8239 13.6478C22.6652 13.7785 22.5859 13.9325 22.5859 14.1098C22.5859 14.2125 22.5765 14.3945 22.5579 14.6558V14.7398C22.5485 14.8705 22.5205 15.0805 22.4739 15.3698L22.4599 15.4958C22.4132 15.7758 22.3432 16.0768 22.2499 16.3988C22.1565 16.7208 22.0352 17.0545 21.8859 17.3998C21.7739 17.6891 21.6292 17.9785 21.4519 18.2678C21.3212 18.5105 21.1859 18.7298 21.0459 18.9258L20.6539 19.4298C20.5325 19.5791 20.3692 19.7565 20.1639 19.9618L19.8279 20.2838L19.5899 20.4798C19.5059 20.5451 19.3799 20.6431 19.2119 20.7738L18.9879 20.9278C18.8385 21.0305 18.7312 21.1005 18.6659 21.1378L18.1619 21.4038C17.9192 21.5251 17.7045 21.6185 17.5179 21.6838C17.4059 21.7305 17.2239 21.7958 16.9719 21.8798L16.8039 21.9358C16.5425 22.0105 16.2999 22.0665 16.0759 22.1038C15.7772 22.1598 15.5112 22.1971 15.2779 22.2158L14.8299 22.2578H14.0039L13.8919 22.2438C13.8079 22.2438 13.7519 22.2391 13.7239 22.2298L13.1919 22.1738C12.9025 22.1271 12.6645 22.0851 12.4779 22.0478C12.3845 22.0291 12.1932 21.9685 11.9039 21.8658L11.7079 21.8098C11.2972 21.6605 11.0079 21.5438 10.8399 21.4598C10.5785 21.3291 10.4245 21.2545 10.3779 21.2358L10.2939 21.1798C10.2472 21.1518 10.2099 21.1285 10.1819 21.1098L10.0699 21.0398H10.0559L10.0419 21.0258H10.0279V21.0118H10.0139V20.9978H9.99988V20.9838H10.0839C10.1025 20.9931 10.1539 20.9978 10.2379 20.9978L10.3919 21.0118H10.9239C11.1852 20.9931 11.3812 20.9745 11.5119 20.9558C11.6799 20.9278 11.9132 20.8765 12.2119 20.8018C12.4919 20.7271 12.7392 20.6431 12.9539 20.5498L13.4299 20.3398C13.5512 20.2745 13.6959 20.1858 13.8639 20.0738L14.1579 19.8778V19.8638H14.1719L14.1859 19.8498H14.1999V19.8358L14.2139 19.8218L14.1159 19.8078C14.0319 19.8078 13.9665 19.8031 13.9199 19.7938C13.8359 19.7938 13.7379 19.7751 13.6259 19.7378C13.5512 19.7191 13.4299 19.6818 13.2619 19.6258L13.1919 19.5978C13.0892 19.5511 12.9352 19.4718 12.7299 19.3598L12.6319 19.2898C12.5199 19.2151 12.4452 19.1591 12.4079 19.1218L12.1559 18.8698C12.1092 18.8231 12.0392 18.7391 11.9459 18.6178L11.8899 18.5338C11.8245 18.4311 11.7545 18.2958 11.6799 18.1278L11.5679 17.9038V17.8898L11.5539 17.8758V17.8478H11.5959L11.7359 17.8758C11.7919 17.8851 11.9365 17.8898 12.1699 17.8898L12.3799 17.8758C12.4825 17.8758 12.5479 17.8711 12.5759 17.8618L12.7439 17.8338L12.7719 17.8198H12.7999V17.8058H12.8139L12.7859 17.7918H12.7719L12.7439 17.7778H12.6879C12.6785 17.7685 12.6645 17.7638 12.6459 17.7638L12.6039 17.7498C12.5385 17.7218 12.4219 17.6751 12.2539 17.6098C12.0579 17.5165 11.9132 17.4418 11.8199 17.3858C11.7452 17.3298 11.6425 17.2458 11.5119 17.1338C11.4465 17.0778 11.3439 16.9705 11.2039 16.8118L11.1759 16.7838C11.0359 16.6065 10.9332 16.4431 10.8679 16.2938C10.7745 16.1165 10.7045 15.9391 10.6579 15.7618C10.6019 15.5378 10.5692 15.3651 10.5599 15.2438L10.5459 14.9918H10.5739L10.5879 15.0058H10.6019L10.6159 15.0198L10.8119 15.1038C10.9892 15.1785 11.1525 15.2298 11.3019 15.2578L11.6519 15.3278H11.8199H11.8059V15.3138H11.7919V15.2998H11.7779L11.7639 15.2858H11.7499L11.6239 15.1878C11.5772 15.1505 11.5025 15.0805 11.3999 14.9778L11.1759 14.7258C11.1385 14.6791 11.0919 14.6138 11.0359 14.5298L10.9659 14.4318C10.9192 14.3291 10.8585 14.1938 10.7839 14.0258C10.7092 13.8205 10.6625 13.6618 10.6439 13.5498C10.6065 13.4098 10.5879 13.2511 10.5879 13.0738C10.5785 12.9991 10.5785 12.9011 10.5879 12.7798V12.6678C10.6065 12.5558 10.6345 12.4298 10.6719 12.2898L10.6859 12.2478C10.7419 12.0705 10.7932 11.9351 10.8399 11.8418L10.9379 11.6038L10.9519 11.5898V11.5618H10.9799V11.5758H10.9939V11.5898L11.0079 11.6038V11.6178L11.1759 11.7998C11.2505 11.8838 11.3859 12.0238 11.5819 12.2198C11.7219 12.3598 11.8105 12.4391 11.8479 12.4578C11.8572 12.4578 11.8665 12.4671 11.8759 12.4858L11.9039 12.5138C11.9319 12.5418 12.0159 12.6118 12.1559 12.7238C12.2305 12.7891 12.3752 12.8965 12.5899 13.0458L12.7159 13.1298C12.9772 13.2978 13.2339 13.4518 13.4859 13.5918C13.8779 13.7785 14.1812 13.9138 14.3959 13.9978L14.4659 14.0258C14.8019 14.1378 15.0072 14.2031 15.0819 14.2218C15.2405 14.2778 15.4645 14.3291 15.7539 14.3758C15.8845 14.4038 16.0525 14.4318 16.2579 14.4598L16.4679 14.4878L16.7899 14.5158H16.8739V14.4738L16.8459 14.3198C16.8272 14.1891 16.8179 14.0445 16.8179 13.8858C16.8179 13.6805 16.8342 13.5078 16.8669 13.3678C16.8995 13.2278 16.9439 13.0738 16.9999 12.9058C17.0559 12.7378 17.1119 12.6025 17.1679 12.4998C17.2052 12.4345 17.2799 12.3295 17.3919 12.1848C17.5039 12.0401 17.6252 11.9071 17.7559 11.7858C17.9425 11.6365 18.1105 11.5198 18.2599 11.4358C18.4279 11.3425 18.6005 11.2631 18.7779 11.1978C18.9552 11.1325 19.0905 11.0951 19.1839 11.0858L19.3519 11.0578Z" fill="white"/>
</g>
<defs>
<filter id="filter0_i_470_33150" x="0.999878" y="-1" width="32" height="34" filterUnits="userSpaceOnUse" color-interpolation-filters="sRGB">
<feFlood flood-opacity="0" result="BackgroundImageFix"/>
<feBlend mode="normal" in="SourceGraphic" in2="BackgroundImageFix" result="shape"/>
<feColorMatrix in="SourceAlpha" type="matrix" values="0 0 0 0 0 0 0 0 0 0 0 0 0 0 0 0 0 0 127 0" result="hardAlpha"/>
<feOffset dy="-2"/>
<feGaussianBlur stdDeviation="6"/>
<feComposite in2="hardAlpha" operator="arithmetic" k2="-1" k3="1"/>
<feColorMatrix type="matrix" values="0 0 0 0 0.239216 0 0 0 0 0.588235 0 0 0 0 1 0 0 0 0.4 0"/>
<feBlend mode="normal" in2="shape" result="effect1_innerShadow_470_33150"/>
</filter>
<linearGradient id="paint0_linear_470_33150" x1="-0.00012207" y1="17" x2="33.9999" y2="17" gradientUnits="userSpaceOnUse">
<stop stop-color="#3A5AFF"/>
<stop offset="1" stop-color="#5EBBFF"/>
</linearGradient>
</defs>
</svg>
