<svg width="34" height="34" viewBox="0 0 34 34" fill="none" xmlns="http://www.w3.org/2000/svg">
<rect x="-0.00012207" width="34" height="34" rx="17" fill="url(#paint0_linear_470_33149)"/>
<g filter="url(#filter0_i_470_33149)">
<rect x="0.999878" y="1" width="32" height="32" rx="16" fill="#070719"/>
<path d="M18.2319 22.7188V17.0487H20.3879L20.7099 14.8367H18.2319V13.4227C18.2319 13.0681 18.3112 12.8067 18.4699 12.6388C18.6565 12.4427 18.9925 12.3447 19.4779 12.3447H20.7939V10.3707C20.6445 10.3521 20.4112 10.3334 20.0939 10.3147C19.6832 10.2961 19.2725 10.2867 18.8619 10.2867C18.2272 10.2867 17.6672 10.3987 17.1819 10.6227C16.6965 10.8467 16.3209 11.1781 16.0549 11.6167C15.7889 12.0554 15.6559 12.5827 15.6559 13.1987V14.8367H13.4999V17.0487H15.6559V22.7188H18.2319Z" fill="white"/>
</g>
<defs>
<filter id="filter0_i_470_33149" x="0.999878" y="-1" width="32" height="34" filterUnits="userSpaceOnUse" color-interpolation-filters="sRGB">
<feFlood flood-opacity="0" result="BackgroundImageFix"/>
<feBlend mode="normal" in="SourceGraphic" in2="BackgroundImageFix" result="shape"/>
<feColorMatrix in="SourceAlpha" type="matrix" values="0 0 0 0 0 0 0 0 0 0 0 0 0 0 0 0 0 0 127 0" result="hardAlpha"/>
<feOffset dy="-2"/>
<feGaussianBlur stdDeviation="6"/>
<feComposite in2="hardAlpha" operator="arithmetic" k2="-1" k3="1"/>
<feColorMatrix type="matrix" values="0 0 0 0 0.239216 0 0 0 0 0.588235 0 0 0 0 1 0 0 0 0.4 0"/>
<feBlend mode="normal" in2="shape" result="effect1_innerShadow_470_33149"/>
</filter>
<linearGradient id="paint0_linear_470_33149" x1="-0.00012207" y1="17" x2="33.9999" y2="17" gradientUnits="userSpaceOnUse">
<stop stop-color="#3A5AFF"/>
<stop offset="1" stop-color="#5EBBFF"/>
</linearGradient>
</defs>
</svg>
