<svg width="45" height="27" viewBox="0 0 45 27" fill="none" xmlns="http://www.w3.org/2000/svg">
<path fill-rule="evenodd" clip-rule="evenodd" d="M5.95883 17.8116C5.83086 18.1348 5.6375 18.4323 5.38713 18.6828C4.90725 19.1625 4.2577 19.433 3.57891 19.433H2.55654C1.87776 19.433 1.2282 19.1625 0.748323 18.6828C0.268446 18.2045 0 17.554 0 16.875V4.60179C0 3.92422 0.268446 3.27369 0.748323 2.79398C1.2282 2.31427 1.87776 2.04523 2.55654 2.04523H3.57891C4.2577 2.04523 4.90725 2.31427 5.38713 2.79398C5.77242 3.17974 6.02282 3.67654 6.10489 4.20891C7.85749 4.2018 9.67406 4.1107 11.2125 3.22246C13.5465 1.87727 14.7413 0.453787 17.5802 0.0637551C19.2994 -0.172541 21.084 0.254508 22.5278 1.2367C22.6975 1.35201 22.9548 1.53278 23.201 1.74203C23.7296 1.5826 24.254 1.4545 24.7742 1.36625C27.0442 0.979061 29.4047 1.06446 31.537 2.04238C33.0225 2.7228 34.6819 2.87512 36.1438 2.88366C37.2288 2.89078 38.2178 2.81961 38.9897 2.78972C39.1121 2.40965 39.3249 2.05948 39.6129 1.77194C40.0927 1.29223 40.7423 1.02319 41.4211 1.02319H42.4435C43.1222 1.02319 43.7718 1.29223 44.2517 1.77194C44.7316 2.25165 45 2.90074 45 3.57974V15.8529C45 16.5305 44.7316 17.181 44.2517 17.6607C43.7718 18.1404 43.1222 18.4095 42.4435 18.4095H41.4211C40.7423 18.4095 40.0927 18.1404 39.6129 17.6607C39.2109 17.2579 38.9563 16.7341 38.884 16.1746C37.6725 16.1633 36.3636 16.2956 35.6807 16.5348C35.3482 16.6529 34.9407 16.912 34.6235 17.1526C34.7292 18.3056 34.1464 19.3988 33.3536 20.0009C32.7138 20.4878 31.9446 20.6572 31.2435 20.4436C31.2254 20.4379 31.2074 20.4337 31.1893 20.428C30.7831 20.8863 30.1697 21.534 29.6105 21.9724C29.0764 22.3895 28.5395 22.6102 28.1639 22.623C27.8816 22.6329 27.6089 22.6173 27.3433 22.5788C26.7897 23.4785 25.9426 24.2116 25.3501 24.4977C24.0078 25.1482 22.525 24.8436 21.276 24.3368C20.9366 24.1988 20.5944 24.0536 20.2481 23.9012C20.1883 23.9738 20.1256 24.0465 20.063 24.1176C19.0935 25.2066 17.8028 26.0749 16.9014 26.3923C15.2573 26.9703 13.7134 26.2172 13.0067 25.1624C12.8621 24.9461 12.7494 24.7183 12.6729 24.4863C11.403 24.6101 10.3028 23.877 9.74637 22.9589C9.58363 22.6927 9.47097 22.4123 9.40559 22.1333C8.9591 22.0322 8.54598 21.8159 8.22328 21.4927C7.68915 20.9589 7.34003 20.1162 7.58901 18.9333C7.61962 18.7938 7.70863 18.5803 7.84634 18.3155C7.21206 18.1163 6.58197 17.9454 5.95883 17.8116ZM4.0908 16.6045V4.60179C4.0908 4.46656 4.03655 4.33703 3.94057 4.24024C3.8446 4.14486 3.71522 4.09078 3.57891 4.09078H2.55654C2.42023 4.09078 2.2909 4.14486 2.19492 4.24024C2.09895 4.33703 2.0447 4.46656 2.0447 4.60179V16.875C2.0447 17.0116 2.09895 17.1412 2.19492 17.2366C2.2909 17.3334 2.42023 17.3874 2.55654 17.3874H3.57891C3.71522 17.3874 3.8446 17.3334 3.94057 17.2366C4.03655 17.1412 4.0908 17.0116 4.0908 16.875C4.0908 16.875 4.0908 16.6145 4.0908 16.6045ZM20.8559 2.61748C19.9365 2.14204 18.8821 1.94987 17.8598 2.0908C15.331 2.4367 14.3129 3.79611 12.2348 4.99467C10.3932 6.05801 8.22605 6.22313 6.13545 6.24875V15.759C7.07991 15.9483 8.0369 16.2159 8.99805 16.5405C9.16635 16.3184 9.34579 16.0921 9.53218 15.8686C10.574 14.6216 11.8579 13.4558 12.7717 13.1341C13.9971 12.7042 15.242 12.9192 15.95 13.6522C15.9583 13.6622 15.9681 13.6708 15.9764 13.6807C17.6108 13.1612 19.088 13.9241 19.8558 14.9519C20.3037 15.5526 20.5068 16.2515 20.4386 16.875C20.4094 17.1568 20.3399 17.4487 20.2397 17.7462C20.7182 18.0366 21.0701 18.5063 21.2829 19.0785C21.5875 19.8984 21.5931 20.9333 21.4498 21.6095C21.4137 21.7817 21.3636 21.9554 21.301 22.129C21.5514 22.2372 21.799 22.3411 22.0438 22.4408C22.7865 22.7425 23.66 23.0429 24.4584 22.6571C24.7255 22.5276 25.0802 22.2358 25.3709 21.8643C25.1678 21.7461 24.9675 21.618 24.7714 21.4799C23.9382 20.8977 23.1718 20.1575 22.3693 19.5568C21.9186 19.218 21.8268 18.576 22.1648 18.1248C22.5042 17.6736 23.1454 17.581 23.5975 17.9198C24.3806 18.5077 25.1289 19.2337 25.944 19.8045C26.3001 20.0522 26.6687 20.2728 27.0665 20.4137C27.0804 20.418 27.0929 20.4223 27.1054 20.4266C27.1221 20.4323 27.1388 20.4379 27.1541 20.4436C27.4254 20.5305 27.7105 20.5817 28.0137 20.5803C28.0986 20.5248 28.4254 20.3084 28.6257 20.1305C28.8191 19.9568 29.0138 19.7646 29.1933 19.5782C27.6465 18.7881 25.9482 17.665 24.9189 16.6273C24.5225 16.2259 24.5252 15.5782 24.9258 15.1811C25.3264 14.7825 25.9746 14.7868 26.3724 15.1868C27.6924 16.5205 30.2893 18.0152 31.8388 18.4878C31.9362 18.5177 32.028 18.4408 32.117 18.3725C32.3132 18.223 32.4703 17.9896 32.5413 17.7234C32.6331 17.3761 32.551 16.9761 32.2046 16.6259C30.4938 14.8964 24.0954 10.5847 22.3748 9.45584C21.6042 9.73342 20.8294 10.0053 20.063 10.3014C17.6887 11.2167 15.7497 10.5676 14.7204 9.58964C14.1807 9.07719 13.8678 8.46083 13.7885 7.86582C13.6619 6.91494 14.0541 5.95124 15.2392 5.37758C17.0057 4.52492 18.9211 3.4559 20.8559 2.61748ZM38.8645 4.82528C36.9033 4.89076 33.5219 5.20249 30.6844 3.90144C28.9304 3.09718 26.9858 3.06444 25.1178 3.3833C24.5252 3.48436 23.9271 3.64096 23.3262 3.83882C23.2622 3.86729 23.1983 3.88863 23.1315 3.90428C20.7377 4.72563 18.3188 6.16193 16.1295 7.21957C15.9751 7.29359 15.8582 7.37046 15.8221 7.48719C15.7609 7.6879 15.9125 7.89001 16.0989 8.07649C16.6998 8.68004 17.8876 8.94765 19.3272 8.3925C20.2147 8.04944 21.1118 7.74055 22.0034 7.41458C22.0952 7.36048 22.2037 7.31352 22.3303 7.29359C22.4944 7.23238 22.6586 7.17116 22.8227 7.1071C23.3485 6.90497 23.941 7.1669 24.1441 7.69501C24.2095 7.86583 24.2262 8.04376 24.2011 8.21315C26.6047 9.82168 32.0725 13.5839 33.6596 15.1882C33.6888 15.2181 33.718 15.2494 33.7472 15.2793C34.1576 15.0031 34.6152 14.7426 35.0019 14.606C35.8267 14.3156 37.4027 14.1291 38.8645 14.1334V4.82528ZM40.9092 15.2038V15.8529C40.9092 15.9882 40.9635 16.1177 41.0594 16.2145C41.1554 16.3099 41.2848 16.364 41.4211 16.364H42.4435C42.5798 16.364 42.7091 16.3099 42.8051 16.2145C42.9011 16.1177 42.9553 15.9882 42.9553 15.8529V3.57974C42.9553 3.44451 42.9011 3.31355 42.8051 3.21818C42.7091 3.12138 42.5798 3.06872 42.4435 3.06872H41.4211C41.2848 3.06872 41.1554 3.12138 41.0594 3.21818C40.9635 3.31355 40.9092 3.44451 40.9092 3.57974C40.9092 3.57974 40.9092 3.80892 40.9092 3.81603C40.9092 3.81603 40.9092 15.1981 40.9092 15.2038ZM14.6036 23.7347C14.5994 23.8044 14.6244 23.8756 14.6578 23.9411C14.7761 24.176 15.0167 24.3682 15.306 24.4707C15.5786 24.566 15.8958 24.5774 16.224 24.4621C16.8889 24.2286 17.8194 23.561 18.5344 22.7582C18.711 22.5589 18.8752 22.3525 19.0171 22.1418C19.0435 22.0991 19.0699 22.0564 19.0977 22.0152C19.2646 21.7447 19.3898 21.4657 19.4497 21.1881C19.5275 20.8152 19.5345 20.2444 19.3662 19.7917C19.3384 19.7191 19.3036 19.6479 19.2577 19.5924C18.9447 20.0351 18.5817 20.4721 18.1866 20.8906C17.0822 22.0593 15.7316 23.0842 14.6036 23.7347ZM11.4392 21.7945C11.4559 21.8301 11.474 21.8643 11.4948 21.8999C11.6965 22.233 12.0943 22.5305 12.563 22.4365C12.7411 22.4009 12.9539 22.3226 13.1918 22.2102C13.2864 22.1376 13.3934 22.0835 13.5061 22.0479C14.4561 21.524 15.6885 20.5561 16.6997 19.4856C17.1309 19.0287 17.5287 18.5533 17.8333 18.0807C17.8709 17.9896 17.9238 17.9042 17.9864 17.8273C18.2131 17.4287 18.3647 17.0344 18.405 16.6558C18.4315 16.4152 18.2493 16.1689 18.0239 15.9654C17.6804 15.6536 17.1685 15.4828 16.6079 15.638C16.5982 15.7818 16.5801 15.9312 16.5523 16.0878C16.4494 16.6615 16.0668 17.3803 15.4896 18.1106C14.3685 19.5269 12.5143 21.0799 11.5254 21.7404C11.4962 21.7589 11.4684 21.7774 11.4392 21.7945ZM10.1929 18.3639C10.0621 18.5518 9.9453 18.7298 9.84515 18.892C9.71718 19.0999 9.58502 19.3803 9.58502 19.3803C9.52521 19.6792 9.53217 19.9098 9.66988 20.0465C9.78394 20.1618 9.95083 20.1888 10.1164 20.1547C10.1525 20.1433 10.1901 20.1333 10.2277 20.1219C10.2847 20.1006 10.3389 20.0721 10.3904 20.0379C11.1415 19.5369 12.4532 18.455 13.4393 17.3661C13.9832 16.7639 14.4547 16.1931 14.5382 15.7262C14.566 15.5711 14.5841 15.4358 14.5758 15.3234C14.5577 15.2693 14.5451 15.2138 14.5368 15.1597C14.5229 15.1284 14.5034 15.0985 14.4784 15.0729C14.4047 14.9974 14.2934 14.9732 14.1765 14.9604C13.9498 14.9348 13.6994 14.9761 13.4505 15.0643C12.7689 15.3035 11.8787 16.2501 11.1026 17.1796C10.7771 17.5682 10.4766 17.9611 10.2235 18.3198C10.2138 18.3355 10.204 18.3497 10.1929 18.3639Z" fill="#F2F2F2"/>
</svg>
