<svg width="37" height="45" viewBox="0 0 37 45" fill="none" xmlns="http://www.w3.org/2000/svg">
<path d="M27.1465 27.389C26.4199 27.389 25.7096 27.1735 25.1054 26.7698C24.5012 26.3661 24.0304 25.7923 23.7523 25.121C23.4742 24.4497 23.4015 23.711 23.5433 22.9983C23.685 22.2857 24.0349 21.6311 24.5487 21.1173C25.0625 20.6035 25.7171 20.2536 26.4298 20.1118C27.1425 19.9701 27.8811 20.0428 28.5524 20.3209C29.2237 20.599 29.7975 21.0698 30.2012 21.674C30.6049 22.2782 30.8204 22.9885 30.8204 23.7151C30.8204 24.6895 30.4333 25.624 29.7443 26.3129C29.0554 27.0019 28.1209 27.389 27.1465 27.389ZM27.1465 22.0078C26.8069 22.0078 26.4749 22.1085 26.1925 22.2972C25.9102 22.4859 25.6901 22.754 25.5602 23.0678C25.4302 23.3815 25.3962 23.7268 25.4624 24.0598C25.5287 24.3929 25.6922 24.6989 25.9323 24.939C26.1725 25.1792 26.4784 25.3427 26.8115 25.409C27.1446 25.4752 27.4898 25.4412 27.8036 25.3113C28.1174 25.1813 28.3856 24.9612 28.5742 24.6788C28.7629 24.3965 28.8636 24.0645 28.8636 23.7249C28.8636 23.2695 28.6827 22.8328 28.3607 22.5107C28.0387 22.1887 27.6019 22.0078 27.1465 22.0078Z" fill="#F2F2F2"/>
<path d="M32.6011 18.3486C32.4545 18.3485 32.3098 18.3155 32.1777 18.252C32.0456 18.1885 31.9295 18.0962 31.8379 17.9817C31.7067 17.818 31.6316 17.6165 31.6237 17.4068C31.6158 17.1972 31.6754 16.9906 31.7939 16.8175C31.7939 16.4163 31.7939 16.0054 31.7401 15.5896C31.6842 14.9314 31.5846 14.2777 31.4417 13.6328C31.407 13.5052 31.3986 13.3719 31.417 13.2409C31.4353 13.1099 31.48 12.9841 31.5483 12.8709C31.6166 12.7577 31.7072 12.6595 31.8146 12.5823C31.922 12.5051 32.0438 12.4504 32.1729 12.4216C32.302 12.3928 32.4355 12.3905 32.5655 12.4148C32.6955 12.4391 32.8192 12.4894 32.9292 12.5628C33.0391 12.6363 33.1331 12.7312 33.2053 12.842C33.2776 12.9527 33.3266 13.077 33.3495 13.2072C33.5132 13.9421 33.626 14.6875 33.6871 15.4379C33.7403 16.0642 33.7599 16.6929 33.7458 17.3213C33.7015 17.5982 33.5638 17.8516 33.3555 18.0394C33.1473 18.2272 32.881 18.338 32.6011 18.3535V18.3486Z" fill="#F2F2F2"/>
<path d="M15.1955 37.6621H8.31251C8.05304 37.6621 7.80418 37.559 7.62068 37.3755C7.43719 37.1921 7.33411 36.9431 7.33411 36.6837V33.1664C7.32497 32.462 7.16779 31.7675 6.87285 31.1278C6.57787 30.4882 6.15168 29.9177 5.62193 29.4534C3.64104 27.6805 2.10694 25.4648 1.14462 22.9867C0.182304 20.5086 -0.181026 17.8383 0.0842323 15.1932C0.349491 12.5481 1.23583 10.0031 2.67106 7.76539C4.10629 5.52776 6.04978 3.66079 8.34328 2.31658C10.6368 0.972383 13.2153 0.188963 15.869 0.0301476C18.5226 -0.128669 21.1762 0.34161 23.6137 1.40267C26.0511 2.46374 28.2034 4.08557 29.8953 6.13607C31.5871 8.18659 32.7707 10.6077 33.3495 13.2023C33.3842 13.3299 33.3926 13.4632 33.3742 13.5942C33.3559 13.7252 33.3112 13.851 33.2429 13.9642C33.1745 14.0774 33.0839 14.1756 32.9766 14.2528C32.8692 14.33 32.7474 14.3847 32.6183 14.4135C32.4892 14.4423 32.3557 14.4446 32.2257 14.4203C32.0957 14.396 31.972 14.3457 31.862 14.2723C31.7521 14.1988 31.6581 14.1039 31.5859 13.9931C31.5136 13.8824 31.4646 13.7581 31.4417 13.6279C30.7337 10.4972 29.0391 7.67665 26.6076 5.58152C24.176 3.48635 21.1359 2.22736 17.935 1.98995C15.8865 1.83482 13.8282 2.1079 11.8911 2.79178C9.954 3.47567 8.18047 4.5554 6.68348 5.96221C5.17148 7.37672 3.97029 9.09037 3.15634 10.9942C2.34238 12.898 1.93345 14.9504 1.95553 17.0208C1.97761 19.0912 2.43023 21.1344 3.28461 23.0204C4.139 24.9064 5.37645 26.5941 6.9183 27.976C7.65733 28.625 8.25077 29.4229 8.65964 30.3175C9.06856 31.212 9.28366 32.1828 9.2909 33.1664V35.7053H15.1955C15.455 35.7053 15.7038 35.8084 15.8873 35.9919C16.0708 36.1754 16.1739 36.4242 16.1739 36.6837C16.1739 36.9431 16.0708 37.1921 15.8873 37.3755C15.7038 37.559 15.455 37.6621 15.1955 37.6621Z" fill="#F2F2F2"/>
<path d="M25.4343 37.6621H18.434C18.1745 37.6621 17.9256 37.559 17.7421 37.3755C17.5586 37.1921 17.4556 36.9432 17.4556 36.6837C17.4556 36.4242 17.5586 36.1754 17.7421 35.9919C17.9256 35.8084 18.1745 35.7053 18.434 35.7053H24.4559V35.358C24.4559 35.0985 24.559 34.8496 24.7425 34.6661C24.926 34.4826 25.1749 34.3796 25.4343 34.3796C25.6938 34.3796 25.9427 34.4826 26.1262 34.6661C26.3097 34.8496 26.4127 35.0985 26.4127 35.358V36.6837C26.4127 36.9432 26.3097 37.1921 26.1262 37.3755C25.9427 37.559 25.6938 37.6621 25.4343 37.6621ZM22.4992 45H11.2477C10.7287 45 10.231 44.7939 9.86404 44.4269C9.49704 44.0599 9.2909 43.5622 9.2909 43.0432V40.5972C9.2909 40.3378 9.39397 40.0889 9.57747 39.9054C9.76091 39.7219 10.0098 39.6189 10.2693 39.6189H23.4776C23.737 39.6189 23.9859 39.7219 24.1694 39.9054C24.3529 40.0889 24.4559 40.3378 24.4559 40.5972C24.4559 40.8568 24.3529 41.1056 24.1694 41.2891C23.9859 41.4726 23.737 41.5756 23.4776 41.5756H11.2477V43.0432H22.4992C22.4992 42.7838 22.6022 42.5349 22.7857 42.3514C22.9692 42.1679 23.2181 42.0648 23.4776 42.0648C23.737 42.0648 23.9859 42.1679 24.1694 42.3514C24.3529 42.5349 24.4559 42.7838 24.4559 43.0432C24.4559 43.5622 24.2498 44.0599 23.8828 44.4269C23.5159 44.7939 23.0182 45 22.4992 45Z" fill="#F2F2F2"/>
<path d="M15.1955 37.6621C14.936 37.6621 14.6871 37.5589 14.5036 37.3755C14.3202 37.192 14.2171 36.9431 14.2171 36.6836V32.5744L7.68633 25.2952C7.525 25.115 7.43611 24.8815 7.43684 24.6396V21.9686C7.43684 21.7092 7.53992 21.4603 7.72337 21.2768C7.90686 21.0933 8.15572 20.9902 8.41523 20.9902C8.6747 20.9902 8.92356 21.0933 9.10706 21.2768C9.2905 21.4603 9.39363 21.7092 9.39363 21.9686V24.263L15.9244 31.5422C16.0857 31.7224 16.1746 31.9559 16.1739 32.1977V36.6837C16.1739 36.9431 16.0708 37.1921 15.8873 37.3755C15.7038 37.559 15.455 37.6621 15.1955 37.6621Z" fill="#F2F2F2"/>
<path d="M24.456 41.5756H9.2909C8.77191 41.5756 8.2742 41.3695 7.90725 41.0025C7.54026 40.6355 7.33411 40.1378 7.33411 39.6189V38.9731C7.33411 38.7136 7.43719 38.4648 7.62068 38.2813C7.80413 38.0978 8.05304 37.9947 8.3125 37.9947C8.57197 37.9947 8.82083 38.0978 9.00432 38.2813C9.18782 38.4648 9.2909 38.7136 9.2909 38.9731V39.6189H24.456V37.6621H19.0748C18.8153 37.6621 18.5664 37.559 18.383 37.3755C18.1995 37.192 18.0964 36.9431 18.0964 36.6837C18.0964 36.4242 18.1995 36.1754 18.383 35.9919C18.5664 35.8084 18.8153 35.7053 19.0748 35.7053H25.4343C25.6938 35.7053 25.9427 35.8084 26.1262 35.9919C26.3097 36.1754 26.4127 36.4242 26.4127 36.6837L26.4127 39.6189C26.4127 40.1378 26.2066 40.6355 25.8396 41.0025C25.4726 41.3695 24.9749 41.5756 24.456 41.5756Z" fill="#F2F2F2"/>
<path d="M15.1955 37.6621L8.3174 37.6621C8.05793 37.6621 7.80907 37.559 7.62558 37.3755C7.44208 37.192 7.33901 36.9431 7.33901 36.6837C7.33901 36.4242 7.44208 36.1754 7.62558 35.9919C7.80907 35.8084 8.05793 35.7053 8.3174 35.7053H15.1955C15.455 35.7053 15.7038 35.8084 15.8873 35.9919C16.0708 36.1754 16.1739 36.4242 16.1739 36.6837C16.1739 36.9431 16.0708 37.1921 15.8873 37.3755C15.7038 37.559 15.455 37.6621 15.1955 37.6621Z" fill="#F2F2F2"/>
<path d="M8.59624 19.8064C7.97198 19.8064 7.3617 19.6212 6.84272 19.2743C6.32373 18.9274 5.91931 18.4343 5.68063 17.8574C5.44196 17.2806 5.37978 16.6459 5.50193 16.0337C5.62408 15.4215 5.92504 14.8593 6.36683 14.4182C6.80857 13.9771 7.37129 13.677 7.98367 13.5558C8.59604 13.4346 9.23063 13.4978 9.80709 13.7374C10.3836 13.9769 10.876 14.3821 11.2221 14.9017C11.5683 15.4212 11.7525 16.0317 11.7515 16.656C11.7502 17.492 11.4172 18.2933 10.8256 18.884C10.2341 19.4747 9.43222 19.8064 8.59624 19.8064ZM8.59624 15.4574C8.32987 15.4563 8.07065 15.5435 7.85922 15.7055C7.64774 15.8674 7.49599 16.095 7.42775 16.3525C7.35945 16.6099 7.37853 16.8828 7.482 17.1282C7.58541 17.3737 7.76734 17.5779 7.99932 17.7088C8.23125 17.8398 8.50006 17.8901 8.76369 17.8519C9.02727 17.8136 9.27074 17.689 9.45595 17.4976C9.64111 17.3061 9.75754 17.0586 9.78699 16.7939C9.81644 16.5292 9.75725 16.2622 9.61866 16.0347C9.51279 15.8582 9.3629 15.7122 9.18366 15.6111C9.00447 15.5099 8.80204 15.457 8.59624 15.4574ZM18.434 13.3784C17.8094 13.3793 17.1987 13.195 16.6791 12.8487C16.1595 12.5023 15.7543 12.0096 15.5149 11.4328C15.2755 10.8561 15.2126 10.2212 15.3341 9.60872C15.4557 8.9962 15.7563 8.43353 16.1979 7.99193C16.6395 7.55039 17.2022 7.24978 17.8147 7.12816C18.4272 7.00655 19.062 7.06946 19.6388 7.30887C20.2156 7.54833 20.7083 7.95348 21.0546 8.47316C21.401 8.99278 21.5854 9.60349 21.5844 10.2279C21.5831 11.0631 21.2507 11.8637 20.6602 12.4542C20.0697 13.0448 19.2691 13.3771 18.434 13.3784ZM18.434 9.02942C18.1967 9.02849 17.9645 9.09796 17.7667 9.22906C17.569 9.36017 17.4146 9.54699 17.3232 9.7659C17.2317 9.98482 17.2072 10.226 17.253 10.4588C17.2987 10.6916 17.4124 10.9056 17.5798 11.0737C17.7473 11.2418 17.9608 11.3565 18.1934 11.4031C18.426 11.4498 18.6673 11.4263 18.8866 11.3357C19.1059 11.2452 19.2933 11.0915 19.4253 10.8943C19.5571 10.6971 19.6276 10.4652 19.6276 10.2279C19.6276 9.91095 19.502 9.60682 19.2783 9.38223C19.0545 9.15759 18.751 9.03074 18.434 9.02942Z" fill="#F2F2F2"/>
<path d="M14.4274 26.939C14.168 26.939 13.9191 26.8359 13.7356 26.6524C13.5521 26.4689 13.4491 26.22 13.4491 25.9606V17.2871C13.4491 17.1352 13.4844 16.9854 13.5523 16.8496C13.6203 16.7137 13.7189 16.5956 13.8404 16.5044L17.4996 13.7747V12.4001C17.4996 12.1406 17.6027 11.8918 17.7862 11.7083C17.9696 11.5248 18.2185 11.4217 18.478 11.4217C18.7375 11.4217 18.9863 11.5248 19.1698 11.7083C19.3533 11.8918 19.4564 12.1406 19.4564 12.4001V14.2639C19.4564 14.4158 19.421 14.5656 19.3531 14.7014C19.2852 14.8373 19.1865 14.9555 19.065 15.0466L15.4058 17.7763V25.9606C15.4058 26.22 15.3028 26.4689 15.1193 26.6524C14.9358 26.8359 14.6869 26.939 14.4274 26.939Z" fill="#F2F2F2"/>
<path d="M25.1066 33.2006C24.9911 33.2001 24.876 33.1853 24.7641 33.1565C23.6235 32.8656 22.5458 32.3681 21.5844 31.6889C21.3255 31.5066 21.1363 31.2418 21.0474 30.9379C20.9585 30.634 20.9754 30.309 21.0952 30.0159L21.8632 28.2108L21.7801 28.108L20.0189 28.6266C19.7023 28.7236 19.3614 28.704 19.058 28.5711C18.7546 28.4383 18.5089 28.2011 18.3655 27.9026C17.853 26.8408 17.5428 25.6928 17.4507 24.5173C17.4257 24.2021 17.509 23.8877 17.687 23.6262C17.8648 23.3647 18.1266 23.1717 18.4291 23.0791L20.2195 22.5508L20.2635 22.2524L18.8302 21.274C18.5522 21.0905 18.3497 20.8128 18.2598 20.4921C18.1699 20.1712 18.1988 19.8288 18.341 19.5276C18.8457 18.4623 19.544 17.5001 20.4005 16.6902C20.6301 16.4712 20.9282 16.3379 21.2445 16.313C21.5608 16.288 21.8761 16.3729 22.1372 16.5532L23.4091 17.424C23.7788 17.1771 24.1701 16.9642 24.5782 16.7881V15.4819C24.5791 15.1493 24.6989 14.8278 24.916 14.5757C25.1331 14.3236 25.4332 14.1575 25.7621 14.1073C26.9342 13.9429 28.1266 13.996 29.2794 14.2638C29.5825 14.3365 29.8522 14.5094 30.0449 14.7544C30.2376 14.9995 30.3419 15.3023 30.341 15.614V16.8076C30.6322 16.9325 30.9149 17.0763 31.1873 17.2381L31.9749 16.6266C32.1424 16.4852 32.3425 16.3877 32.557 16.3429C32.7781 16.2891 33.0091 16.2918 33.2288 16.3508C33.4485 16.4098 33.6499 16.5232 33.8143 16.6804C34.6717 17.4861 35.3732 18.443 35.8836 19.5031C36.0169 19.7823 36.0532 20.0981 35.9867 20.4002C35.9203 20.7024 35.7548 20.9738 35.5167 21.1712L34.6263 21.8953C34.6943 22.1855 34.7449 22.4796 34.778 22.7758L35.727 22.9666C36.0585 23.0338 36.3537 23.2204 36.5566 23.491C36.7596 23.7615 36.856 24.0972 36.8277 24.4342C36.7521 25.6203 36.4551 26.7818 35.952 27.8585C35.8175 28.1397 35.5925 28.3677 35.3132 28.506C35.0339 28.6443 34.7163 28.6851 34.4111 28.6217L33.0511 28.3428C32.9288 28.4896 32.7918 28.6315 32.6549 28.7733L33.237 29.8349C33.3909 30.1294 33.4344 30.4691 33.36 30.7929C33.2856 31.1166 33.098 31.4032 32.831 31.6009C31.8766 32.2931 30.8041 32.8054 29.6659 33.1125C29.3604 33.1928 29.0366 33.1663 28.7483 33.0373C28.4601 32.9082 28.2245 32.6845 28.0809 32.4032L27.2639 30.8524H27.0047C26.8405 31.1498 26.7108 31.4649 26.6182 31.7917C26.6079 31.8323 26.5931 31.8717 26.5742 31.9091L26.3834 32.364C26.276 32.6133 26.0977 32.8254 25.8707 32.9742C25.6437 33.1229 25.378 33.2016 25.1066 33.2006ZM23.096 30.3534C23.6206 30.6761 24.1824 30.9339 24.769 31.1215C24.9006 30.6975 25.0743 30.2878 25.2876 29.8985L25.3756 29.693C25.4931 29.4193 25.6952 29.1904 25.9523 29.0399C26.2093 28.8893 26.5079 28.8251 26.8041 28.8565C27.0328 28.8858 27.2632 28.9005 27.4939 28.9005H27.851C28.0293 28.9006 28.2042 28.9494 28.3568 29.0417C28.5094 29.1339 28.6339 29.2661 28.7168 29.424L29.5925 31.0921C30.179 30.8955 30.7393 30.6277 31.2607 30.2947L30.7176 29.2625C30.5728 28.9821 30.5279 28.6607 30.5901 28.3513C30.6524 28.0418 30.8181 27.7628 31.0601 27.5601C31.3115 27.3433 31.5394 27.1006 31.7401 26.8361C31.8986 26.6333 32.1095 26.4773 32.3499 26.3851C32.5903 26.2929 32.8513 26.2679 33.1049 26.3127L34.3817 26.572C34.6156 25.9951 34.7798 25.3924 34.8709 24.7766L33.692 24.5418C33.4667 24.4971 33.2644 24.3745 33.1204 24.1957C32.9765 24.0168 32.8999 23.793 32.9044 23.5634C32.9074 23.0524 32.8382 22.5435 32.6989 22.0518C32.6197 21.7915 32.6188 21.5135 32.6962 21.2526C32.7736 20.9918 32.9259 20.7593 33.1343 20.5842L33.9561 19.914C33.6531 19.3838 33.2886 18.8913 32.8701 18.4464L32.1363 19.0139C31.9049 19.2064 31.6163 19.3171 31.3155 19.3286C31.0147 19.3401 30.7185 19.2518 30.4731 19.0775C30.1158 18.8377 29.7316 18.6406 29.3283 18.4905C29.0627 18.3943 28.8329 18.2189 28.6702 17.9879C28.5075 17.7569 28.4196 17.4815 28.4184 17.199V16.0787C27.8077 15.9763 27.187 15.9468 26.5693 15.9907V17.1941C26.573 17.4763 26.4895 17.7528 26.3301 17.9857C26.1707 18.2186 25.9433 18.3966 25.6789 18.4953C25.1884 18.6802 24.7258 18.9321 24.3043 19.2438C24.0709 19.4185 23.7884 19.5153 23.497 19.5206C23.2055 19.5259 22.9197 19.4393 22.6802 19.2732L21.4816 18.4562C21.0576 18.9083 20.6912 19.4111 20.3907 19.9532L21.7311 20.8679C21.9606 21.0286 22.1368 21.2541 22.237 21.5156C22.3373 21.7772 22.357 22.0627 22.2937 22.3355C22.2319 22.5878 22.191 22.8446 22.1714 23.1036C22.1533 23.3893 22.0457 23.6621 21.8639 23.8833C21.6822 24.1046 21.4356 24.2631 21.1588 24.3363L19.4857 24.8255C19.5761 25.4383 19.7404 26.0379 19.9749 26.6111L21.648 26.1219C21.9244 26.0436 22.2183 26.0523 22.4896 26.1469C22.7609 26.2414 22.9965 26.4171 23.1645 26.6502C23.2981 26.8342 23.4418 27.0106 23.595 27.1786C23.7747 27.3724 23.8947 27.6139 23.9407 27.8742C23.9867 28.1345 23.9567 28.4025 23.8542 28.6462L23.096 30.3534Z" fill="#F2F2F2"/>
</svg>
