<svg width="33" height="34" viewBox="0 0 33 34" fill="none" xmlns="http://www.w3.org/2000/svg">
<g clip-path="url(#clip0_447_5597)">
<g clip-path="url(#clip1_447_5597)">
<g clip-path="url(#clip2_447_5597)">
<path d="M31.3939 16.8039C31.3939 8.15762 24.3847 1.14844 15.7384 1.14844C7.09219 1.14844 0.0830078 8.15762 0.0830078 16.8039C0.0830078 25.4501 7.09219 32.4593 15.7384 32.4593C24.3847 32.4593 31.3939 25.4501 31.3939 16.8039Z" fill="#9146FF"/>
<path d="M20.0022 17.9464L17.7451 20.0406H15.4879L13.5129 21.873V20.0406H10.9736V12.1875H20.0022V17.9464Z" fill="#9146FF"/>
<path d="M12.1648 10L11.4841 10.6807L10.293 18.3382L13.8665 20.2101L14.377 20.8908L17.7803 19.6996L21.524 16.8067L21.6942 14.0841L21.524 10.1702L21.0135 10H12.1648Z" fill="white"/>
<path d="M11.7531 9.46094L8.93164 12.0786V21.5023H12.3174V24.12L15.1389 21.5023H17.396L22.4746 16.7904V9.46094H11.7531ZM21.346 16.267L19.0888 18.3611H16.8317L14.8567 20.1935V18.3611H12.3174V10.508H21.346V16.267Z" fill="black"/>
<path d="M19.6534 12.3438H18.5249V15.485H19.6534V12.3438Z" fill="black"/>
<path d="M16.5505 12.3438H15.4219V15.485H16.5505V12.3438Z" fill="black"/>
</g>
</g>
</g>
<defs>
<clipPath id="clip0_447_5597">
<rect width="32" height="32.94" fill="white" transform="translate(0.0600586 0.289062)"/>
</clipPath>
<clipPath id="clip1_447_5597">
<rect width="32" height="32.94" fill="white" transform="translate(0.0600586 0.289062)"/>
</clipPath>
<clipPath id="clip2_447_5597">
<rect width="31.9989" height="32.94" fill="white" transform="translate(0.0605469 0.289062)"/>
</clipPath>
</defs>
</svg>
