<svg width="26" height="21" viewBox="0 0 26 21" fill="none" xmlns="http://www.w3.org/2000/svg">
<path opacity="0.994" fill-rule="evenodd" clip-rule="evenodd" d="M17.1442 0.0319806C18.4177 -0.0971787 19.6012 0.164887 20.6947 0.818177C21.0751 1.08908 21.4471 1.36805 21.8106 1.6551C22.9596 1.40176 24.0417 0.979073 25.0568 0.387037C24.7185 1.59918 24.0084 2.55445 22.9265 3.25285C23.9253 3.15673 24.8806 2.89466 25.7923 2.46665C25.1153 3.55014 24.253 4.48005 23.2055 5.25638C23.2456 9.81454 21.6816 13.7117 18.5137 16.9479C15.2703 19.9342 11.4324 21.2698 6.99968 20.9549C4.46559 20.764 2.13236 19.9863 0 18.6217C2.85583 18.8718 5.42577 18.1447 7.7098 16.4407C5.30931 16.2205 3.68621 14.9862 2.84045 12.7379C3.18458 12.765 3.53118 12.7903 3.88026 12.814C4.30241 12.8067 4.71664 12.7475 5.12296 12.6365C3.26441 12.1431 1.9879 11.0019 1.29342 9.21272C1.08174 8.61887 1.00566 8.0102 1.06517 7.38672C1.78181 7.76947 2.54264 7.98083 3.34767 8.02075C1.65614 6.79251 0.903761 5.12714 1.09053 3.0246C1.17123 2.34292 1.37412 1.70043 1.6992 1.09715C1.73415 1.0537 1.77642 1.01988 1.826 0.995705C4.64355 4.34045 8.24481 6.16644 12.6299 6.47372C12.2552 4.00334 13.1006 2.08434 15.166 0.716732C15.7946 0.380441 16.454 0.15219 17.1442 0.0319806Z" fill="#0A1828"/>
</svg>
