<svg width="42" height="42" viewBox="0 0 42 42" fill="none" xmlns="http://www.w3.org/2000/svg">
<g clip-path="url(#clip0_447_5645)">
<g clip-path="url(#clip1_447_5645)">
<path d="M40.9572 20.5623C40.9572 9.50378 31.9924 0.539062 20.9339 0.539062C9.87536 0.539062 0.910645 9.50378 0.910645 20.5623C0.910645 31.6209 9.87536 40.5856 20.9339 40.5856C31.9924 40.5856 40.9572 31.6209 40.9572 20.5623Z" fill="#33CCFF"/>
<path d="M30.8734 14.2213C30.2121 14.5061 29.517 14.7045 28.8051 14.8114C29.1379 14.7543 29.6277 14.1547 29.8226 13.912C30.1187 13.5459 30.3445 13.128 30.4883 12.6794C30.4883 12.6462 30.5216 12.5985 30.4883 12.5748C30.4715 12.5656 30.4527 12.5607 30.4335 12.5607C30.4145 12.5607 30.3957 12.5656 30.3789 12.5748C29.6059 12.9937 28.7832 13.3135 27.9303 13.5265C27.9005 13.5356 27.8689 13.5364 27.8387 13.5289C27.8086 13.5214 27.781 13.5057 27.7591 13.4837C27.6927 13.4046 27.6212 13.3298 27.5451 13.26C27.1972 12.948 26.8026 12.6927 26.3755 12.5033C25.799 12.2667 25.1763 12.1641 24.5544 12.2036C23.9511 12.2417 23.3619 12.4037 22.8238 12.6794C22.2938 12.9702 21.828 13.3651 21.4545 13.8406C21.0614 14.3299 20.7778 14.8979 20.6223 15.5063C20.4943 16.0848 20.4797 16.6829 20.5795 17.267C20.5795 17.3669 20.5795 17.3812 20.494 17.3669C17.104 16.8673 14.3225 15.6633 12.0497 13.0791C11.9499 12.965 11.8976 12.965 11.8168 13.0791C10.8278 14.583 11.308 16.9624 12.5442 18.1379C12.7107 18.2949 12.8818 18.4472 13.0625 18.5899C12.4957 18.5497 11.9427 18.396 11.4364 18.1379C11.3413 18.076 11.289 18.1093 11.2843 18.2235C11.2708 18.3819 11.2708 18.541 11.2843 18.6994C11.3834 19.4583 11.6822 20.1771 12.1501 20.7825C12.6179 21.3878 13.238 21.858 13.9469 22.1448C14.1196 22.2189 14.2998 22.2748 14.4842 22.3114C13.9595 22.4148 13.4212 22.4309 12.8914 22.359C12.7772 22.3351 12.7344 22.397 12.7772 22.5065C13.4761 24.41 14.9929 24.9906 16.1055 25.3142C16.2577 25.3381 16.4097 25.3381 16.5809 25.3761C16.5809 25.3761 16.5809 25.3761 16.5524 25.4046C16.2243 26.0043 14.8978 26.4087 14.2892 26.6182C13.1784 27.0175 11.9939 27.1702 10.8183 27.0655C10.6328 27.037 10.5901 27.0417 10.5425 27.0655C10.495 27.0893 10.5425 27.1417 10.5948 27.1893C10.8326 27.3463 11.0703 27.4843 11.3175 27.6176C12.0535 28.0194 12.8317 28.3385 13.6378 28.5693C17.8124 29.721 22.51 28.8739 25.6432 25.7568C28.1062 23.3107 28.9715 19.9367 28.9715 16.558C28.9715 16.4294 29.1284 16.3532 29.2188 16.2867C29.8418 15.8007 30.3912 15.2269 30.8496 14.583C30.929 14.487 30.9697 14.3648 30.9637 14.2403C30.9637 14.169 30.9637 14.1832 30.8734 14.2213Z" fill="white"/>
</g>
</g>
<defs>
<clipPath id="clip0_447_5645">
<rect width="41" height="41" fill="white" transform="translate(0.5 0.25)"/>
</clipPath>
<clipPath id="clip1_447_5645">
<rect width="41" height="41" fill="white" transform="translate(0.5 0.25)"/>
</clipPath>
</defs>
</svg>
