<svg width="60" height="55" viewBox="0 0 60 55" fill="none" xmlns="http://www.w3.org/2000/svg">
<path d="M29.7258 40.0297C30.389 40.0297 30.9288 39.4903 30.9288 38.8267C30.9288 38.1635 30.3894 37.6241 29.7258 37.6241C29.0623 37.6241 28.5229 38.1635 28.5229 38.8267C28.5233 39.4903 29.0626 40.0297 29.7258 40.0297Z" fill="url(#paint0_linear_463_28840)"/>
<path d="M53.8807 0.617188H5.65322C2.70792 0.617188 0.31189 3.01361 0.31189 5.95852V38.5321C0.31189 41.4774 2.70831 43.8738 5.65322 43.8738H20.6835V51.8406H15.4536C14.6892 51.8406 14.0696 52.4602 14.0696 53.2246C14.0696 53.989 14.6892 54.6087 15.4536 54.6087H44.0802C44.8446 54.6087 45.4643 53.989 45.4643 53.2246C45.4643 52.4602 44.8446 51.8406 44.0802 51.8406H38.7686V43.8738H53.8807C56.8256 43.8738 59.222 41.4774 59.222 38.5321V5.95892C59.222 3.01361 56.826 0.617188 53.8807 0.617188ZM5.65322 3.38533H53.8807C55.2995 3.38533 56.4538 4.53965 56.4538 5.95852V33.78H3.08004V5.95892C3.08004 4.53965 4.23435 3.38533 5.65322 3.38533ZM36.0004 51.8406H23.4516V43.8738H36.0004V51.8406ZM56.4538 38.5321C56.4538 39.9514 55.2995 41.1057 53.8807 41.1057H5.65322C4.23435 41.1057 3.08004 39.9514 3.08004 38.5321V36.5481H56.4538V38.5321Z" fill="url(#paint1_linear_463_28840)"/>
<path d="M29.7258 40.0297C30.389 40.0297 30.9288 39.4903 30.9288 38.8267C30.9288 38.1635 30.3894 37.6241 29.7258 37.6241C29.0623 37.6241 28.5229 38.1635 28.5229 38.8267C28.5233 39.4903 29.0626 40.0297 29.7258 40.0297Z" stroke="url(#paint2_linear_463_28840)" stroke-width="0.5"/>
<path d="M53.8807 0.617188H5.65322C2.70792 0.617188 0.31189 3.01361 0.31189 5.95852V38.5321C0.31189 41.4774 2.70831 43.8738 5.65322 43.8738H20.6835V51.8406H15.4536C14.6892 51.8406 14.0696 52.4602 14.0696 53.2246C14.0696 53.989 14.6892 54.6087 15.4536 54.6087H44.0802C44.8446 54.6087 45.4643 53.989 45.4643 53.2246C45.4643 52.4602 44.8446 51.8406 44.0802 51.8406H38.7686V43.8738H53.8807C56.8256 43.8738 59.222 41.4774 59.222 38.5321V5.95892C59.222 3.01361 56.826 0.617188 53.8807 0.617188ZM5.65322 3.38533H53.8807C55.2995 3.38533 56.4538 4.53965 56.4538 5.95852V33.78H3.08004V5.95892C3.08004 4.53965 4.23435 3.38533 5.65322 3.38533ZM36.0004 51.8406H23.4516V43.8738H36.0004V51.8406ZM56.4538 38.5321C56.4538 39.9514 55.2995 41.1057 53.8807 41.1057H5.65322C4.23435 41.1057 3.08004 39.9514 3.08004 38.5321V36.5481H56.4538V38.5321Z" stroke="url(#paint3_linear_463_28840)" stroke-width="0.5"/>
<defs>
<linearGradient id="paint0_linear_463_28840" x1="33.5788" y1="54.6087" x2="33.5788" y2="3.83097" gradientUnits="userSpaceOnUse">
<stop stop-color="#0788AE"/>
<stop offset="1" stop-color="#22AAD2"/>
</linearGradient>
<linearGradient id="paint1_linear_463_28840" x1="33.5788" y1="54.6087" x2="33.5788" y2="3.83097" gradientUnits="userSpaceOnUse">
<stop stop-color="#0788AE"/>
<stop offset="1" stop-color="#22AAD2"/>
</linearGradient>
<linearGradient id="paint2_linear_463_28840" x1="33.5788" y1="54.6087" x2="33.5788" y2="3.83097" gradientUnits="userSpaceOnUse">
<stop stop-color="#0788AE"/>
<stop offset="1" stop-color="#22AAD2"/>
</linearGradient>
<linearGradient id="paint3_linear_463_28840" x1="33.5788" y1="54.6087" x2="33.5788" y2="3.83097" gradientUnits="userSpaceOnUse">
<stop stop-color="#0788AE"/>
<stop offset="1" stop-color="#22AAD2"/>
</linearGradient>
</defs>
</svg>
