<svg width="30" height="31" viewBox="0 0 30 31" fill="none" xmlns="http://www.w3.org/2000/svg">
<g clip-path="url(#clip0_447_5609)">
<g clip-path="url(#clip1_447_5609)">
<g clip-path="url(#clip2_447_5609)">
<path d="M29.5256 15.163C29.5256 7.31077 23.1602 0.945312 15.308 0.945312C7.45579 0.945312 1.09033 7.31077 1.09033 15.163C1.09033 23.0152 7.45579 29.3806 15.308 29.3806C23.1602 29.3806 29.5256 23.0152 29.5256 15.163Z" fill="#FF0000"/>
<path d="M23.217 11.2525C23.0314 10.5545 22.4822 10.0039 21.7834 9.81522C20.52 9.47656 15.4507 9.47656 15.4507 9.47656C15.4507 9.47656 10.3841 9.47656 9.11807 9.81522C8.42189 10.0013 7.87268 10.5519 7.68446 11.2525C7.34668 12.5191 7.34668 15.1636 7.34668 15.1636C7.34668 15.1636 7.34668 17.8081 7.68446 19.0748C7.8701 19.7727 8.41931 20.3233 9.11807 20.5121C10.3841 20.8506 15.4507 20.8506 15.4507 20.8506C15.4507 20.8506 20.52 20.8506 21.7834 20.5121C22.4796 20.3259 23.0288 19.7753 23.217 19.0748C23.5548 17.8081 23.5548 15.1636 23.5548 15.1636C23.5548 15.1636 23.5548 12.5191 23.217 11.2525Z" fill="white"/>
<path d="M13.8315 17.6019L18.0421 15.1642L13.8315 12.7266V17.6019Z" fill="#FF0000"/>
</g>
</g>
</g>
<defs>
<clipPath id="clip0_447_5609">
<rect width="29" height="29.92" fill="white" transform="translate(0.660156 0.289062)"/>
</clipPath>
<clipPath id="clip1_447_5609">
<rect width="29" height="29.92" fill="white" transform="translate(0.660156 0.289062)"/>
</clipPath>
<clipPath id="clip2_447_5609">
<rect width="28.985" height="29.92" fill="white" transform="translate(0.66748 0.289062)"/>
</clipPath>
</defs>
</svg>
